<?xml version="1.0" encoding="utf-8"?>
<!-- Generator: Adobe Illustrator 18.1.1, SVG Export Plug-In . SVG Version: 6.00 Build 0)  -->
<svg version="1.1" id="Layer_1" xmlns="http://www.w3.org/2000/svg" xmlns:xlink="http://www.w3.org/1999/xlink" x="0px" y="0px"
	 viewBox="0 0 1500 500" enable-background="new 0 0 1500 500" xml:space="preserve">
<linearGradient id="SVGID_1_" gradientUnits="userSpaceOnUse" x1="581.9182" y1="711.8009" x2="918.0818" y2="-211.8009">
	<stop  offset="0" style="stop-color:#FFFFFF"/>
	<stop  offset="0.1125" style="stop-color:#FAFAFA"/>
	<stop  offset="0.2366" style="stop-color:#EDEDED"/>
	<stop  offset="0.3662" style="stop-color:#D7D7D7"/>
	<stop  offset="0.4997" style="stop-color:#B8B8B8"/>
	<stop  offset="0.6361" style="stop-color:#909090"/>
	<stop  offset="0.775" style="stop-color:#606060"/>
	<stop  offset="0.9133" style="stop-color:#272727"/>
	<stop  offset="1" style="stop-color:#000000"/>
</linearGradient>
<rect fill="url(#SVGID_1_)" width="1500" height="500"/>
<path fill="none" stroke="#000000" stroke-miterlimit="10" d="M606,188.3"/>
<path fill="none" stroke="#000000" stroke-miterlimit="10" d="M639.5,138.3"/>
<g>
	<g>
		<path d="M233.6,208.6v-61.7h-24.3v-14.3h66.3v14.3h-24.3v61.7L233.6,208.6L233.6,208.6z"/>
		<path d="M285,208.6v-76.1h17.6v61.7h38.1v14.3L285,208.6L285,208.6z"/>
		<path d="M368.3,208.6h-17.6v-76.1h57.5v14.1h-39.9V208.6z M366.9,166.8h36.5v14.1h-36.5V166.8z"/>
		<path d="M449.4,208.6v-76.1h14.5l44.9,54.8h-7v-54.8h17.4v76.1h-14.4l-45-54.8h7v54.8H449.4z"/>
		<path d="M554.7,194.5h41.4v14.1h-58.9v-76.1h57.5v14.1h-40V194.5z M553.4,163.2h90.9v13.7h-90.9V163.2z"/>
		<path d="M664.6,176.4l24.8,32.4H669l-13.9-20.1 M655,152.1l13.4-19.3h19.1L664.6,164"/>
		<path d="M737.7,209.9c-10.8,0-19.3-3-25.3-9c-6.1-6-9.1-14.6-9.1-25.7v-42.6h17.6v41.9c0,7.3,1.5,12.4,4.4,15.6
			c3,3.2,7.2,4.8,12.5,4.8c5.3,0,9.5-1.6,12.5-4.8c3-3.2,4.4-8.4,4.4-15.6v-41.9h17.4v42.6c0,11.1-3.1,19.7-9.1,25.7
			C756.9,206.9,748.5,209.9,737.7,209.9z"/>
		<path d="M814.5,209.9c-6.1,0-11.9-0.8-17.5-2.4c-5.6-1.6-10.1-3.7-13.5-6.4l6-13.2c3.2,2.3,7.1,4.2,11.6,5.7
			c4.4,1.5,9,2.2,13.5,2.2c3.5,0,6.3-0.3,8.4-1c2.2-0.7,3.7-1.6,4.7-2.9c1-1.2,1.5-2.7,1.5-4.3c0-2-0.8-3.6-2.4-4.8
			c-1.6-1.2-3.7-2.2-6.3-3c-2.6-0.7-5.5-1.5-8.6-2.2c-3.1-0.7-6.3-1.5-9.4-2.6s-6-2.3-8.6-3.9s-4.7-3.7-6.4-6.3
			c-1.6-2.6-2.4-6-2.4-10c0-4.4,1.2-8.3,3.5-11.9s5.9-6.4,10.6-8.6c4.7-2.2,10.7-3.2,17.9-3.2c4.8,0,9.5,0.6,14.1,1.7
			c4.7,1.1,8.7,2.8,12.3,5.1l-5.5,13.3c-3.5-2-7.1-3.5-10.6-4.5c-3.6-1-7-1.5-10.5-1.5c-3.4,0-6.2,0.4-8.4,1.2
			c-2.2,0.8-3.7,1.8-4.7,3.1c-1,1.2-1.4,2.7-1.4,4.4c0,1.9,0.8,3.5,2.4,4.7c1.6,1.2,3.7,2.2,6.3,2.9c2.6,0.7,5.5,1.5,8.6,2.2
			c3.1,0.7,6.3,1.5,9.4,2.5c3.1,1,6,2.2,8.6,3.8c2.6,1.6,4.7,3.7,6.4,6.3c1.6,2.6,2.4,5.9,2.4,9.9c0,4.3-1.2,8.2-3.6,11.8
			c-2.4,3.5-6,6.4-10.7,8.6C827.8,208.8,821.8,209.9,814.5,209.9z"/>
	</g>
	<path d="M658.9,170.1l-4.5,6.2L632,208.6h-20.3l32.9-45.6v12.6l-31.1-43h19.1l21.3,30.6L658.9,170.1z"/>
</g>
<path fill="none" stroke="#000000" stroke-miterlimit="10" d="M616.2,138.3"/>
<path fill="none" stroke="#000000" stroke-miterlimit="10" d="M604.5,163.3"/>
<path fill="none" stroke="#000000" stroke-miterlimit="10" d="M800.7,210.3"/>
<rect x="575.3" y="267.5" width="8.1" height="91.4"/>
<g>
	<path d="M922.2,208.4c-6,0-11.4-1-16.4-2.8c-5-1.9-9.3-4.6-13-8.1c-3.7-3.5-6.6-7.6-8.6-12.4c-2-4.7-3.1-9.9-3.1-15.6
		c0-5.7,1-10.9,3.1-15.6c2-4.7,4.9-8.9,8.7-12.4c3.7-3.5,8.1-6.2,13.1-8.1c5-1.9,10.5-2.8,16.6-2.8c6.7,0,12.7,1.1,18,3.3
		c5.3,2.2,9.8,5.4,13.5,9.7l-11.2,10.3c-2.7-2.9-5.7-5-8.9-6.4c-3.2-1.4-6.7-2.1-10.5-2.1c-3.7,0-7,0.6-10,1.7
		c-3,1.1-5.6,2.8-7.8,4.9c-2.2,2.2-3.9,4.7-5.1,7.6c-1.2,2.9-1.8,6.2-1.8,9.8c0,3.5,0.6,6.7,1.8,9.7c1.2,2.9,2.9,5.5,5.1,7.7
		c2.2,2.2,4.8,3.9,7.7,5c3,1.1,6.3,1.7,9.8,1.7c3.4,0,6.8-0.6,10.1-1.7c3.3-1.1,6.4-3,9.5-5.6l9.9,12.6c-4.1,3.1-8.8,5.4-14.2,7.1
		C933,207.6,927.6,208.4,922.2,208.4z M936.8,196.6v-28.3h15.9v30.5L936.8,196.6z"/>
	<path d="M968.8,207.1v-75.3h32.6c6.7,0,12.5,1.1,17.4,3.3c4.9,2.2,8.6,5.3,11.3,9.4c2.7,4.1,4,9,4,14.6c0,5.6-1.3,10.4-4,14.5
		c-2.7,4.1-6.4,7.2-11.3,9.3c-4.9,2.2-10.7,3.2-17.4,3.2h-22.9l7.7-7.6v28.6H968.8z M986.2,180.4l-7.7-8.2h21.9
		c5.4,0,9.4-1.2,12-3.5c2.7-2.3,4-5.5,4-9.6c0-4.2-1.3-7.4-4-9.7c-2.7-2.3-6.7-3.4-12-3.4h-21.9l7.7-8.3V180.4z M1016.7,207.1
		l-18.8-27.3h18.6l19,27.3H1016.7z"/>
	<path d="M1084.4,208.4c-6,0-11.5-1-16.5-2.9c-5.1-1.9-9.4-4.7-13.1-8.2c-3.7-3.5-6.6-7.6-8.6-12.4c-2-4.7-3.1-9.9-3.1-15.5
		c0-5.6,1-10.8,3.1-15.5c2-4.7,4.9-8.9,8.7-12.4c3.7-3.5,8.1-6.2,13.1-8.2c5-1.9,10.5-2.9,16.3-2.9c5.9,0,11.4,1,16.4,2.9
		c5,1.9,9.3,4.7,13,8.2c3.7,3.5,6.6,7.6,8.7,12.3c2.1,4.7,3.1,9.9,3.1,15.5c0,5.6-1,10.8-3.1,15.5c-2.1,4.8-5,8.9-8.7,12.4
		c-3.7,3.5-8,6.2-13,8.1C1095.7,207.4,1090.3,208.4,1084.4,208.4z M1084.3,193.6c3.4,0,6.5-0.6,9.3-1.7c2.8-1.1,5.3-2.8,7.5-4.9
		c2.2-2.2,3.8-4.7,5-7.6c1.2-2.9,1.8-6.2,1.8-9.8c0-3.6-0.6-6.8-1.8-9.8c-1.2-2.9-2.8-5.5-4.9-7.6c-2.1-2.2-4.6-3.8-7.5-4.9
		c-2.9-1.1-6-1.7-9.4-1.7c-3.4,0-6.5,0.6-9.3,1.7c-2.8,1.1-5.3,2.8-7.5,4.9c-2.2,2.2-3.8,4.7-5,7.6c-1.2,2.9-1.8,6.2-1.8,9.8
		c0,3.5,0.6,6.8,1.8,9.7c1.2,3,2.8,5.5,4.9,7.7c2.1,2.2,4.6,3.8,7.5,4.9C1077.8,193,1080.9,193.6,1084.3,193.6z"/>
	<path d="M1172,208.4c-10.7,0-19-3-25.1-8.9c-6-5.9-9-14.4-9-25.5v-42.2h17.4v41.5c0,7.2,1.5,12.3,4.4,15.5
		c2.9,3.2,7.1,4.7,12.4,4.7c5.3,0,9.4-1.6,12.4-4.7c2.9-3.2,4.4-8.3,4.4-15.5v-41.5h17.2V174c0,11-3,19.5-9,25.5
		C1191.1,205.4,1182.7,208.4,1172,208.4z"/>
	<path d="M1223.3,207.1v-75.3h32.6c6.7,0,12.5,1.1,17.4,3.3c4.9,2.2,8.6,5.3,11.3,9.4c2.7,4.1,4,9,4,14.6c0,5.6-1.3,10.4-4,14.5
		c-2.7,4.1-6.4,7.2-11.3,9.4c-4.9,2.2-10.7,3.3-17.4,3.3H1233l7.7-7.8v28.6H1223.3z M1240.7,180.4l-7.7-8.3h21.9
		c5.4,0,9.4-1.1,12-3.4c2.7-2.3,4-5.5,4-9.6c0-4.2-1.3-7.4-4-9.7c-2.7-2.3-6.7-3.4-12-3.4H1233l7.7-8.3V180.4z"/>
</g>
<text transform="matrix(1 0 0 1 338.3461 336.9782)" font-family="'Oswald-Regular'" font-size="54.4996">Excellence</text>
<text transform="matrix(1 0 0 1 615.0091 336.9788)" font-family="'Oswald-Regular'" font-size="54.4996">Professionalism</text>
<text transform="matrix(1 0 0 1 992.6964 336.9788)" font-family="'Oswald-Regular'" font-size="54.4996">Integrity</text>
<rect x="952.8" y="265.5" width="8.1" height="91.4"/>
</svg>
