<?xml version="1.0" encoding="utf-8"?>
<!-- Generator: Adobe Illustrator 18.1.1, SVG Export Plug-In . SVG Version: 6.00 Build 0)  -->
<svg version="1.1" id="Layer_1" xmlns="http://www.w3.org/2000/svg" xmlns:xlink="http://www.w3.org/1999/xlink" x="0px" y="0px"
	 viewBox="0 0 360 360" enable-background="new 0 0 360 360" xml:space="preserve">
<linearGradient id="SVGID_1_" gradientUnits="userSpaceOnUse" x1="302.9423" y1="-32.9423" x2="57.0577" y2="392.9423">
	<stop  offset="0" style="stop-color:#FFFFFF"/>
	<stop  offset="1" style="stop-color:#000000"/>
</linearGradient>
<rect fill="url(#SVGID_1_)" width="360" height="360"/>
<g>
	<g>
		<path stroke="#000000" stroke-width="3" stroke-miterlimit="10" d="M124.1,270.9c-21.9-10.5-35.9-33-35.9-57.2V88h171.4v125.6
			c0,24.3-14.1,46.7-35.9,57.2l-49.7,24L124.1,270.9z"/>
		<path fill="#1B293B" d="M219.2,261.9l-45.4,21.9l-45.4-21.9c-18.5-9-30.4-27.7-30.4-48.3V98h151.6v115.6
			C249.6,234.3,237.8,253,219.2,261.9z"/>
		<path fill="#585555" d="M219.4,262.5L174,284.3l-45.4-21.9c-18.5-9-30.4-27.7-30.4-48.3V98.6h151.6v115.6
			C249.7,234.7,238,253.6,219.4,262.5z"/>
		<path fill="#383838" d="M98.3,219.3c1.9,18.3,13.2,34.5,30,42.6l45.4,21.9l45.4-21.9c18.5-9,30.4-27.7,30.4-48.3V98
			C249.6,98,99.6,219.8,98.3,219.3z"/>
		<g>
			<path fill="#CCCCCC" d="M249.6,98v115.6c0,20.5-11.8,39.4-30.4,48.3l-45.4,21.9l-45.4-21.9c-18.5-9-30.4-27.7-30.4-48.3V98
				L249.6,98 M252.5,95.1h-2.9H98.1h-2.9V98v115.6c0,10.6,3,21,8.7,30c5.6,9,13.8,16.2,23.3,20.8l45.4,21.9l1.2,0.6l1.2-0.6
				l45.4-21.9c9.6-4.6,17.7-11.9,23.3-20.8c5.6-9,8.7-19.4,8.7-30V98L252.5,95.1L252.5,95.1z"/>
		</g>
	</g>
	<g>
		<g>
			<defs>
				<path id="SVGID_2_" d="M219.2,261.9l-45.4,21.9l-45.4-21.9c-18.5-9-30.4-27.7-30.4-48.3V98h151.6v29.9l11.9,50.4l-11.9,25.5v9.8
					C249.6,234.3,237.8,253,219.2,261.9z"/>
			</defs>
			<clipPath id="SVGID_3_">
				<use xlink:href="#SVGID_2_"  overflow="visible"/>
			</clipPath>
			<g clip-path="url(#SVGID_3_)">
				<path d="M218.9,178.5l21.2-27.8c0,0-0.8-23.5-34.8-31.5c-33.9-8-71.1-3.8-69.7-0.3c1.1,2.8,2.2,3.9,3.1,4.2
					c-15.1,4.2-35.8,28.3-42.1,44.8c-3.8,10-4.1,53.3-5,63.5c-0.5,5.7,9.7,24.2,23.2,43.4c11.5,4.2,23.1,7.7,35,10.6
					c13.5,3.2,27.2,5.4,41.1,6.8c4.9-3.4,9.7-7,14.2-10.8c7.7-6.5,24.8-12.2,31.2-20.1c3.8-4.6,8.6-16.6,12.1-21.4
					C215,209.8,218.9,178.5,218.9,178.5z"/>
				<g>
					<path fill="#AFAEAA" d="M107.5,265.5c9.5,14.3,23.9,22.8,39.3,36.3c9.5,8.3,17.1,14.9,23.3,20.3c3.3,2.9,6.3,5.4,8.8,7.5
						c22.6-19.2,45.6-37.8,67.6-57.6c-9-12.6-40.8-60.4-32.4-99c0.1-0.4,6.9-6.2,7-6.6c3-13,12.3-15.1,12.3-15.1s0.7-11.1-12.1-20.2
						c-16.8-11.7-58.9-14.6-74.4-11.5c0,0,2.8,1.6,5.4,2.7c3.7,1.4,5.1,2.8,5.1,2.8s-10.9-1.2-22.2,5.9
						c-11.4,7.2-19.8,17.5-23.7,22.7c-1.4,1.9-2.2,3.1-2.3,3.2c0.2-0.3,3.5-3.9,7.9-6.7l0.1-0.1c0.6-0.4,1.2-0.8,1.9-1.1
						c0.4-0.2,0.9-0.4,1.2-0.6c5.6-2.6,11.9-3.4,11.9-3.4c-1.1,0.7-21,21.1-31,41.6c-3.1,6.4-5.3,12.3-6.7,17.6l0,0
						c-3.7,13.4-4.8,30.5-4.8,30.5s0.7,1.3,1.9,3.7c0.4,0.8,0.9,1.7,1.4,2.7c1.8,3.4,4.3,7.9,7.5,13.2
						C102.6,257.8,104.9,261.5,107.5,265.5z"/>
				</g>
				<path fill="#FFFFFF" d="M179.9,119.7c5.5,1.4,10.9,3.2,16.3,5.2c4.6,1.5,9.2,3.3,13.2,5.9c4,2.7,7,6.3,9.6,10.5
					c2.8,4.6,5.1,9.5,7.6,14c0,0,0,0.1,0.1,0.1c3.3-3.3,6.7-4.1,6.7-4.1s0.7-11.1-12.1-20.2c-9.5-6.7-27-10.5-43.3-11.9
					C178.5,119.3,179.2,119.5,179.9,119.7z"/>
				<g>
					<path fill="#686868" d="M133.3,158.8c0,0,5.8-2.4,10.9-3.1c0,0-22.5,22.7-31.3,50.9c-4.2,13.4-7.9,27.9-10.7,39.4
						c-3.2-5.3-5.6-9.8-7.5-13.2c-0.5-9.7-0.7-19.9-0.2-28.7l0,0c1.4-5.3,3.6-11.2,6.7-17.6c9.9-20.5,29.9-40.9,31-41.6
						c0,0-6.2,0.9-11.9,3.4c6.6-3.4,14.9-6.7,24.4-8.1C144.7,140.1,137.7,146.9,133.3,158.8z"/>
				</g>
				<g>
					<path fill="#686868" d="M214.1,172.9l-0.4-14.3h-5c0,0-7.9,14.5-28.3,21.2c-15.1,5-26.3,6.8-37.9,17.6c0.5-0.1,6.6-1.1,9.8-1.1
						c0,0-32.4,19.1-41.2,47.5c-6.5,21.1-4.8,32.9-3.3,32.2c9.5,14.3,23.6,12.2,39,25.7c9.5,8.3,17.1,14.9,23.3,20.3l7.9,8.2
						c11.2-9.6,22.6-19,33.7-28.5l16.2-50.5C228,251.4,204.3,217.7,214.1,172.9z"/>
				</g>
				<path fill="#FFFFFF" d="M209.9,273.2c2.1,4.6,4.4,9,6.9,13.3l11.3-35.1c0,0-23.8-33.6-14-78.5l-0.4-14.3h-0.2
					c-7.2,9.7-11.9,21.2-14.4,33c-2.9,12.9-3.1,26-1.1,39.1C199.8,245.4,203.9,259.7,209.9,273.2z"/>
				<path d="M205.3,187l-21.6-4.7c0,0-21.5,9.8-19.4,33.1c0,0,5.4-8.6,10.5-11.9c0,0-10.3,14.8-9.1,44.9c1.1,24.9,6.8,42,6.8,42
					s-2.5-32.1,5.7-50.4c0,0,2,44.4,22.7,71c6.8-5.6,13.5-11.3,20.3-17l6.9-42.5C228,251.4,199,228.3,205.3,187z"/>
				<path d="M242.3,146.2c-6-2.7-19.7-4-26.4-3.2c-4.4,0.5-5.8,0.6-5.8,0.6s-4.8,2.9-7.3,8.9c0,0,1.8-0.2,4.3,0.7
					c0,0-1.8,10.5-5.2,16.6c-1.2,2.3-8,6.8-18.3,12.5c0.4,1.7,6.5,3.6,6.8,5.4c4.7-0.5,7.7-1,7.7-1s-1.2,7.3,0.8,10.8
					c0,0,7.6-11.8,27.9-15.5c8.2-1.5,13.1-2.2,15.1,3.6c1.1,3.2,1.6,7.6,1.6,7.6s13.4-3,15.9-19
					C261.8,159.9,251.7,150.4,242.3,146.2z"/>
				<g>
					<g>
						<path fill="#E2E2E2" d="M238.5,150.4c-5.4-2.8-13.4-3.8-18.7-3.8c-2.1,0-5.1,0.4-6.5,1.1c4.4-0.6,9.6,4.3,9.6,4.3
							c-4-0.3-8.8,0.7-10,1.7c-1.2,1.1-4.6,3.9-10.8,12.5c-6.2,8.6-18.2,16.2-18.2,16.2s10.3-4.6,21.9-9.6c10.8-4.7,30-6.8,36.9-3.3
							c6.9,3.3,6.4,13,6.4,13s4.2-2.6,4.9-9.3C255,159.7,243.9,153.1,238.5,150.4z"/>
					</g>
					<g>
						<path fill="#FFFFFF" d="M238.5,150.4c-5.4-2.8-13.4-3.8-18.7-3.8c-2.1,0-5.1,0.4-6.5,1.1c6.4-1.1,16.5,0.4,23.7,4.5
							c6.5,3.7,11,11.2,10.9,16.1c0,0-0.8-0.3-5.4-0.4c-1.6,0-6.2,0.2-6.2,0.2c2.6,0.2,4.7,0.8,6.2,1.4c6.9,3.3,6.4,13,6.4,13
							s4.2-2.6,4.9-9.3C255,159.7,243.9,153.1,238.5,150.4z"/>
					</g>
					<g>
						<path fill="#51504C" d="M183.7,182.3c0,0,8-6.4,21.9-9.6c17.7-4,27.8,2.3,27.8,2.3s-15.1,2.3-21.3,5.4
							c-6.2,3.2-8.1,4.9-8.1,4.9s0.7-3.9,2.1-6C206,179.4,192.4,179.5,183.7,182.3z"/>
					</g>
					<path d="M199.1,169.4c-10,6.8-32.5,11.1-38.2,23c0,0,5.9-3,15.8-5.4C186.5,184.7,199.1,169.4,199.1,169.4z"/>
				</g>
				<g>
					<g>
						<path fill="#383838" d="M186.1,146.9c-5.4-1.3-10.8-3.1-15.6-5.9c-5.8-0.7-12.6,1.7-12.6,1.7s4.1,0,5.6,1.5
							c0.8,0.8,0,2.1-0.1,6c-0.1,9.1,10.8,9.7,19.4,7.8c7.7-1.7,13.7-4.4,15.4-9.1C192.9,148.1,191.2,148.2,186.1,146.9z"/>
					</g>
					<path d="M197.9,142.2c0,0-1.4,4.7-4.3,4.2c-4.1-0.7-16.4-9.9-24.9-9.9c-3.9,0-7.7,4.3-10.7,6.3c0,0,6.2-1.3,11,0.8
						c0,0-0.7,4.3,4.8,8.1s15.2,0.2,15.2,0.2s0.1,3.2-8.5,4.9c0,0,11.4,1.2,16.2-4.5C200.2,147.9,197.9,142.2,197.9,142.2z"/>
					<path fill="#AFAEAA" d="M187.3,147.6c-5.4,0.2-12.3-3.3-14-3.4c-0.1-0.1,0.1,5.9,3.9,8.5C183.4,156.8,187.3,147.6,187.3,147.6z
						"/>
					<path fill="#FFFFFF" d="M175.9,144.9c0,2,1.1,3.7,3.2,4c2,0.3,5.1-1.6,5.1-1.6s-1.7-0.9-3.8-1.2
						C177.8,145.8,175.9,144.9,175.9,144.9z"/>
					<path d="M180.2,146.2c1.2,0.4,1.5,1.1,1.1,1.9c-0.6,0.9-2.9,0.8-2.9,0.8s1.1,0.9,3.2,0.8c3.8-0.2,4.2-2,4.2-2s-1-1.4-2.8-1.7
						C181,145.6,180.2,146.2,180.2,146.2z"/>
				</g>
				<path d="M222.1,293.1c9.7-8.2,19.2-16.5,28.6-25.1c-9.1-17.3-35-67.8-38-84.9c0,0-10.5,20,0.2,62.5
					C217.4,263.6,220.9,285.5,222.1,293.1z"/>
				<path fill="#FFFFFF" d="M169.4,146.3c0,0,0,4.6,6,7.4c4.8,2.2,13.5-1.9,13.5-1.9s-8.5,2.5-14.3-0.7
					C169.3,148.2,169.4,146.3,169.4,146.3z"/>
				<path d="M111.9,284.4l-7.1-14.2c0,0-1.1-35.6,18.9-69c0,0-17.1,14.3-24.7,37.2c3.3-18.9,10.5-45.9,25.3-76.5
					c0,0-17.5,9.7-31.9,35.6c-11.3,20.5-7.4,57.2-5.2,72C95.7,274.2,103.9,279.3,111.9,284.4z"/>
				<path d="M145.2,261.8c-3.3-29.2-0.8-50.1-0.8-50.1s-10.9,12.6-18.9,40.2c-4.7,16.2-6.3,29.1-6.9,36.9c14,9.3,27.5,19,41.1,29
					C154.3,304.9,147.8,285.5,145.2,261.8z"/>
				<path d="M220.2,157.3c-0.4-0.1-0.8-0.2-1.1-0.3c1.3-0.9,3.6-1.4,3.6-1.4s-5.4-1-7,1.1c-1.6,2.1-1.7,5.4,1.4,3.7l0,0
					c0.5-0.2,1.1-0.4,1.7-0.7C221.1,159,221.9,157.8,220.2,157.3z"/>
				<path d="M231.8,144.2c1.6-1.5-9.1-1.5-19.7-6.5c-11.5-5.4-17.4-1.8-17.4-1.8s3.6,0,8.2,2.8c6.7,4,2.8,9,17.2,7.1
					C229.6,144.5,231.8,144.2,231.8,144.2z"/>
				<g>
					<path fill="#51504C" d="M204.2,257.4c-9.5-22.9-8.1-44.2-8.1-44.2c-6.3,36.6,9.3,75.9,15.2,89.1c4.2-3.5,8.3-7,12.4-10.5
						C220.7,287.9,211.9,275.9,204.2,257.4z"/>
				</g>
			</g>
		</g>
		<g>
			<defs>
				<path id="SVGID_4_" d="M219.2,261.9l-45.4,21.9l-45.4-21.9c-18.5-9-30.4-27.7-30.4-48.3V98h151.6v29.9l11.9,50.4l-11.9,25.5v9.8
					C249.6,234.3,237.8,253,219.2,261.9z"/>
			</defs>
			<clipPath id="SVGID_5_">
				<use xlink:href="#SVGID_4_"  overflow="visible"/>
			</clipPath>
			<g clip-path="url(#SVGID_5_)">
				<g>
					<path fill="#51504C" d="M215.9,208.5c1.1,11.2,3.1,26.9,6.9,39c0,0-12.6-7.6-18.3-19.1c0,0-3.1,23.1,5.3,45.8
						c0,0,12-2.9,24-9.9c11.9-7.1,12.6-13.1,12.6-13.1S221.8,231.5,215.9,208.5z"/>
				</g>
			</g>
		</g>
		<g>
			<defs>
				<path id="SVGID_6_" d="M219.2,261.9l-45.4,21.9l-45.4-21.9c-18.5-9-30.4-27.7-30.4-48.3V98h151.6v29.9l11.9,50.4l-11.9,25.5v9.8
					C249.6,234.3,237.8,253,219.2,261.9z"/>
			</defs>
			<clipPath id="SVGID_7_">
				<use xlink:href="#SVGID_6_"  overflow="visible"/>
			</clipPath>
			<g clip-path="url(#SVGID_7_)">
				<path fill="#FFFFFF" d="M237.3,261.8c8.3-6,8.9-10.7,8.9-10.7s-24.5-19.6-30.3-42.6C217,227.1,234,256.9,237.3,261.8z"/>
			</g>
		</g>
	</g>
	<g>
		<g display="none">
			<path display="inline" fill="#1B293B" stroke="#1B293B" stroke-width="11" stroke-linecap="round" stroke-miterlimit="10" d="
				M124.7,49.6c0,0,5.1,27,7.6,42.1c0.3,1.7,2.1,2.9,3.7,2.4c5.5-1.6,17.6-4.6,32.1-5.3c1.8-0.1,3.6-0.1,5.4-0.1
				c16.8,0,31.3,3.6,37.6,5.4c0,0,0,0,0.1,0c1.7,0.5,3.4-0.6,3.7-2.4c2.6-15,7.6-42.1,7.6-42.1c-3.2,0.6-6.4,5.8-6.4,5.8
				s-1.9-2.7-3.8-0.8c-0.1,0.1-0.2,0.2-0.3,0.4c-1.9,2.6,1.7,5.2,1.7,5.2s0,3.2-1.9,7.2c-1.9,4.1-9.1,3.4-11.1,0.3
				c-2.2-3.5-0.6-8.3-0.6-8.3s3.4,0.1,3.6-3.3c0-0.2,0-0.4,0-0.7c-0.3-4.2-5.5-5.8-8.4-2.7c-0.5,0.5-0.8,1-1,1.4
				c-0.8,2.3,2.2,4.5,2.2,4.5s-1.6,7.6-5.5,8.6c-4.8,1.2-8.1-1.2-9.7-2.7c-4-3.9-3.7-10.1-3.7-10.1s4.4-0.1,5-3.3
				c0.8-5.1-5.7-5.5-5.7-5.5s3.5-5.2-3.4-11.9c-7,6.7-3.4,11.9-3.4,11.9s-6.2,0.6-5.6,5.4c0.3,2.2,5.3,3.4,5.3,3.4s0.3,4.9-3.9,9.9
				c-1.3,1.5-5.2,3.5-9.8,2.9c-4.1-0.6-5.5-8.6-5.5-8.6s3-2.1,2.2-4.5c-0.2-0.5-0.5-0.9-0.9-1.3c-2.9-3.2-8.3-1.6-8.5,2.7
				c0,0.2,0,0.4,0,0.5c0.3,3.3,3.6,3.3,3.6,3.3s1.7,4.7-0.6,8.3c-2,3.2-9.1,3.8-11.1-0.3c-1.9-4.1-1.9-7.2-1.9-7.2s3.7-2.7,1.7-5.2
				c-1.9-2.6-4.1,0.5-4.1,0.5S127.8,50.2,124.7,49.6z"/>
			<path display="inline" fill="#FFFFFF" d="M212,91.9l-0.8,1.3c0,0,0,0,0.1,0c1.7,0.5,3.4-0.6,3.7-2.4c2.6-15,7.6-41.2,7.6-41.2
				c-3.2,0.6-6.4,5.8-6.4,5.8s-1.9-2.7-3.8-0.8c0.1,0,1.1,0.4,2,1.3c3,2.8,3.4,7.8,3.4,7.8L211.7,82c-3-0.5-12.5,1.5-12.5,1.5
				C207.5,85.3,212,91.9,212,91.9z"/>
			<path display="inline" fill="#1B293B" d="M215,90.8c0,0,0-1.1-2.1-1.8c-3.2-1.1-9.4-3.5-18.3-5c0,0,8.2-1.9,19,1.8
				c1.5,0.6,2.1-0.3,2.5-1.3c0.1-0.3,0.6,2.4,0.9,2.5L215,90.8z"/>
			<path display="inline" fill="#1B293B" d="M131.2,90c0,0,1.1,1.4,1.1,1.1c-0.1-1.1,0.2-1.6,0.9-1.9c3-1.2,9.4-3.5,18.4-5.1
				c0,0-6.9-2.1-17.6,1c-1.8,0.5-2.6,0.4-3.2-1.5c0,0-1.2,3.4-1.6,3.6L131.2,90z"/>
		</g>
	</g>
</g>
</svg>
