<?xml version="1.0" encoding="utf-8"?>
<!-- Generator: Adobe Illustrator 18.1.1, SVG Export Plug-In . SVG Version: 6.00 Build 0)  -->
<svg width='1378px' height='231px' version="1.1" id="Layer_1" xmlns="http://www.w3.org/2000/svg" xmlns:xlink="http://www.w3.org/1999/xlink" x="0px" y="0px"
	 viewBox="0 0 1378 231" enable-background="new 0 0 1378 231" xml:space="preserve">
<g>
	<g>
		<path stroke="#000000" stroke-width="10" stroke-miterlimit="10" d="M42.9,197.6c-22.9-11-37.6-34.5-37.6-59.9V6.3h179.3v131.4
			c0,25.4-14.8,48.9-37.6,59.9l-52,25.1L42.9,197.6z"/>
		<path fill="#1B293B" d="M142.4,188.2l-47.5,22.9l-47.5-22.9c-19.4-9.4-31.8-29-31.8-50.5v-121h158.6v121
			C174.2,159.3,161.8,178.9,142.4,188.2z"/>
		<path fill="#585555" d="M142.6,188.8l-47.5,22.9l-47.5-22.9c-19.4-9.4-31.8-29-31.8-50.5v-121h158.6v121
			C174.3,159.8,162,179.5,142.6,188.8z"/>
		<path fill="#383838" d="M15.9,143.6c2,19.2,13.8,36.1,31.4,44.6l47.5,22.9l47.5-22.9c19.4-9.4,31.8-29,31.8-50.5v-121
			C174.2,16.7,17.2,144.2,15.9,143.6z"/>
		<g>
			<path fill="#CCCCCC" d="M174.2,16.7v121c0,21.5-12.3,41.2-31.8,50.5l-47.5,22.9l-47.5-22.9c-19.4-9.4-31.8-29-31.8-50.5v-121
				H174.2 M177.2,13.7h-3H15.6h-3v3v121c0,11.1,3.1,22,9.1,31.4c5.9,9.4,14.4,17,24.4,21.8l47.5,22.9l1.3,0.6l1.3-0.6l47.5-22.9
				c10-4.8,18.5-12.4,24.4-21.8c5.9-9.4,9.1-20.3,9.1-31.4v-121V13.7L177.2,13.7z"/>
		</g>
	</g>
	<g>
		<defs>
			<path id="SVGID_1_" d="M142.4,188.2l-47.5,22.9l-47.5-22.9c-19.4-9.4-31.8-29-31.8-50.5v-121h158.6V48l12.4,52.7l-12.4,26.7v10.3
				C174.2,159.3,161.8,178.9,142.4,188.2z"/>
		</defs>
		<clipPath id="SVGID_2_">
			<use xlink:href="#SVGID_1_"  overflow="visible"/>
		</clipPath>
		<g clip-path="url(#SVGID_2_)">
			<path d="M142,101l22.2-29.1c0,0-0.8-24.6-36.4-33c-35.5-8.4-74.4-4-72.9-0.3c1.2,2.9,2.3,4.1,3.2,4.4
				c-15.8,4.4-37.5,29.6-44.1,46.9c-4,10.5-4.3,55.8-5.2,66.4c-0.5,6,10.1,25.3,24.3,45.4c12,4.4,24.2,8.1,36.6,11.1
				c14.1,3.4,28.5,5.7,43,7.1c5.1-3.6,10.1-7.3,14.9-11.3c8.1-6.8,25.9-12.8,32.6-21c4-4.8,9-17.4,12.7-22.4
				C138,133.7,142,101,142,101z"/>
			<g>
				<path fill="#AFAEAA" d="M25.5,192c9.9,15,25,23.9,41.1,38c9.9,8.7,17.9,15.6,24.4,21.2c3.5,3,6.6,5.6,9.2,7.8
					c23.6-20.1,47.7-39.6,70.7-60.3c-9.4-13.2-42.7-63.2-33.9-103.6c0.1-0.4,7.2-6.5,7.3-6.9c3.1-13.6,12.9-15.8,12.9-15.8
					s0.7-11.6-12.7-21.1C126.9,39.1,82.9,36,66.6,39.3c0,0,2.9,1.7,5.7,2.8c3.9,1.5,5.3,2.9,5.3,2.9s-11.4-1.3-23.2,6.2
					c-11.9,7.5-20.7,18.3-24.8,23.7c-1.5,2-2.3,3.2-2.4,3.4c0.2-0.3,3.7-4.1,8.3-7c0,0,0.1-0.1,0.1-0.1c0.6-0.4,1.3-0.8,2-1.1
					c0.4-0.2,0.9-0.4,1.3-0.6c5.9-2.7,12.4-3.6,12.4-3.6c-1.1,0.7-22,22.1-32.4,43.5c-3.2,6.7-5.5,12.9-7,18.4v0
					c-3.9,14-5,31.9-5,31.9s0.7,1.4,2,3.9c0.4,0.8,0.9,1.8,1.5,2.8c1.9,3.6,4.5,8.3,7.8,13.8C20.4,183.9,22.8,187.8,25.5,192z"/>
			</g>
			<path fill="#FFFFFF" d="M101.2,39.4c5.8,1.5,11.4,3.4,17.1,5.4c4.8,1.6,9.6,3.5,13.8,6.2c4.2,2.8,7.3,6.6,10,11
				c2.9,4.8,5.3,9.9,8,14.7c0,0,0,0.1,0.1,0.1c3.5-3.5,7-4.3,7-4.3s0.7-11.6-12.7-21.1c-9.9-7-28.3-11-45.3-12.5
				C99.8,39,100.5,39.2,101.2,39.4z"/>
			<g>
				<path fill="#686868" d="M52.5,80.3c0,0,6.1-2.5,11.4-3.2c0,0-23.5,23.8-32.8,53.3c-4.4,14-8.3,29.2-11.2,41.2
					c-3.3-5.5-5.9-10.3-7.8-13.8c-0.5-10.1-0.7-20.8-0.2-30v0c1.5-5.5,3.8-11.7,7-18.4c10.4-21.5,31.3-42.8,32.4-43.5
					c0,0-6.5,0.9-12.4,3.6c6.9-3.6,15.6-7,25.5-8.5C64.4,60.8,57.1,67.9,52.5,80.3z"/>
			</g>
			<g>
				<path fill="#686868" d="M137,95.1l-0.4-15h-5.2c0,0-8.3,15.2-29.6,22.2c-15.8,5.2-27.5,7.1-39.7,18.4c0.5-0.1,6.9-1.1,10.3-1.1
					c0,0-33.9,20-43.1,49.7c-6.8,22.1-5,34.4-3.5,33.7c9.9,15,24.7,12.8,40.8,26.9c9.9,8.7,17.9,15.6,24.4,21.2l8.3,8.6
					c11.7-10,23.6-19.9,35.3-29.8l17-52.8C151.6,177.2,126.8,142,137,95.1z"/>
			</g>
			<path fill="#FFFFFF" d="M132.6,200c2.2,4.8,4.6,9.4,7.2,13.9l11.8-36.7c0,0-24.9-35.2-14.7-82.1l-0.4-15h-0.2
				c-7.5,10.2-12.4,22.2-15.1,34.5c-3,13.5-3.2,27.2-1.2,40.9C122.1,170.9,126.3,185.9,132.6,200z"/>
			<path d="M127.8,109.8l-22.6-4.9c0,0-22.5,10.3-20.3,34.6c0,0,5.7-9,11-12.5c0,0-10.8,15.5-9.5,47c1.1,26.1,7.1,43.9,7.1,43.9
				s-2.6-33.6,6-52.7c0,0,2.1,46.5,23.7,74.3c7.1-5.9,14.1-11.8,21.2-17.8l7.2-44.5C151.6,177.2,121.2,153.1,127.8,109.8z"/>
			<path d="M166.5,67.2c-6.3-2.8-20.6-4.2-27.6-3.4c-4.6,0.5-6.1,0.6-6.1,0.6s-5,3-7.6,9.3c0,0,1.9-0.2,4.5,0.7c0,0-1.9,11-5.4,17.4
				c-1.3,2.4-8.4,7.1-19.2,13.1c0.4,1.8,6.8,3.8,7.1,5.6c4.9-0.5,8.1-1,8.1-1s-1.3,7.6,0.8,11.3c0,0,7.9-12.3,29.2-16.2
				c8.6-1.6,13.7-2.3,15.8,3.8c1.2,3.4,1.7,8,1.7,8s14-3.1,16.6-19.9C186.9,81.5,176.4,71.5,166.5,67.2z"/>
			<g>
				<g>
					<path fill="#E2E2E2" d="M162.5,71.5c-5.7-2.9-14-4-19.6-4c-2.2,0-5.3,0.4-6.8,1.1c4.6-0.6,10,4.5,10,4.5
						c-4.2-0.3-9.2,0.7-10.5,1.8c-1.3,1.1-4.8,4.1-11.3,13.1c-6.5,9-19,16.9-19,16.9s10.8-4.8,22.9-10c11.3-4.9,31.4-7.1,38.6-3.5
						c7.2,3.5,6.7,13.6,6.7,13.6s4.4-2.7,5.1-9.7C179.8,81.3,168.2,74.4,162.5,71.5z"/>
				</g>
				<g>
					<path fill="#FFFFFF" d="M162.5,71.5c-5.7-2.9-14-4-19.6-4c-2.2,0-5.3,0.4-6.8,1.1c6.7-1.2,17.3,0.4,24.8,4.7
						c6.8,3.9,11.5,11.7,11.4,16.8c0,0-0.8-0.3-5.6-0.4c-1.7,0-6.5,0.2-6.5,0.2c2.7,0.2,4.9,0.8,6.5,1.5c7.2,3.5,6.7,13.6,6.7,13.6
						s4.4-2.7,5.1-9.7C179.8,81.3,168.2,74.4,162.5,71.5z"/>
				</g>
				<g>
					<path fill="#51504C" d="M105.2,104.9c0,0,8.4-6.7,22.9-10c18.5-4.2,29.1,2.4,29.1,2.4s-15.8,2.4-22.3,5.7
						c-6.5,3.3-8.5,5.1-8.5,5.1s0.7-4.1,2.2-6.3C128.5,101.9,114.3,102,105.2,104.9z"/>
				</g>
				<path d="M121.3,91.4c-10.5,7.1-34,11.6-40,24.1c0,0,6.2-3.1,16.5-5.6S121.3,91.4,121.3,91.4z"/>
			</g>
			<g>
				<g>
					<path fill="#383838" d="M107.7,67.9c-5.6-1.4-11.3-3.2-16.3-6.2c-6.1-0.7-13.2,1.8-13.2,1.8s4.3,0,5.9,1.6
						c0.8,0.8,0,2.2-0.1,6.3c-0.1,9.5,11.3,10.2,20.3,8.2c8.1-1.8,14.3-4.6,16.1-9.5C114.8,69.1,113.1,69.2,107.7,67.9z"/>
				</g>
				<path d="M120.1,63c0,0-1.5,4.9-4.5,4.4c-4.3-0.7-17.2-10.4-26.1-10.4c-4.1,0-8.1,4.5-11.2,6.6c0,0,6.5-1.4,11.5,0.8
					c0,0-0.7,4.5,5,8.5s15.9,0.2,15.9,0.2s0.1,3.4-8.9,5.1c0,0,11.9,1.3,17-4.7C122.5,68.9,120.1,63,120.1,63z"/>
				<path fill="#AFAEAA" d="M109,68.6c-5.6,0.2-12.9-3.5-14.7-3.6c-0.1-0.1,0.1,6.2,4.1,8.9C104.9,78.2,109,68.6,109,68.6z"/>
				<path fill="#FFFFFF" d="M97,65.8c0,2.1,1.1,3.9,3.3,4.2c2.1,0.3,5.3-1.7,5.3-1.7s-1.8-0.9-4-1.3C99,66.7,97,65.8,97,65.8z"/>
				<path d="M101.5,67.1c1.3,0.4,1.6,1.1,1.1,2c-0.6,0.9-3,0.8-3,0.8s1.1,0.9,3.3,0.8c4-0.2,4.4-2.1,4.4-2.1s-1-1.5-2.9-1.8
					C102.4,66.5,101.5,67.1,101.5,67.1z"/>
			</g>
			<path d="M145.4,220.9c10.1-8.6,20.1-17.3,29.9-26.3c-9.5-18.1-36.6-70.9-39.8-88.8c0,0-11,20.9,0.2,65.4
				C140.5,190,144.1,212.9,145.4,220.9z"/>
			<path fill="#FFFFFF" d="M90.2,67.3c0,0,0,4.8,6.3,7.7c5,2.3,14.1-2,14.1-2s-8.9,2.6-15-0.7C90.1,69.2,90.2,67.3,90.2,67.3z"/>
			<path d="M30.1,211.8l-7.4-14.9c0,0-1.2-37.2,19.8-72.2c0,0-17.9,15-25.8,38.9c3.5-19.8,11-48,26.5-80c0,0-18.3,10.1-33.4,37.3
				c-11.8,21.4-7.7,59.8-5.4,75.3C13.1,201.1,21.7,206.4,30.1,211.8z"/>
			<path d="M64.9,188.1c-3.5-30.6-0.8-52.4-0.8-52.4s-11.4,13.2-19.8,42.1c-4.9,16.9-6.6,30.4-7.2,38.6c14.6,9.7,28.8,19.9,43,30.3
				C74.4,233.2,67.7,212.9,64.9,188.1z"/>
			<path d="M143.4,78.8c-0.4-0.1-0.8-0.2-1.2-0.3c1.4-0.9,3.8-1.5,3.8-1.5s-5.6-1-7.3,1.1c-1.7,2.2-1.8,5.6,1.5,3.9v0
				c0.5-0.2,1.2-0.4,1.8-0.7C144.3,80.5,145.2,79.3,143.4,78.8z"/>
			<path d="M155.5,65.1c1.7-1.6-9.5-1.6-20.6-6.8c-12-5.6-18.2-1.9-18.2-1.9s3.8,0,8.6,2.9c7,4.2,2.9,9.4,18,7.4
				C153.2,65.4,155.5,65.1,155.5,65.1z"/>
			<g>
				<path fill="#51504C" d="M126.7,183.5c-9.9-24-8.5-46.2-8.5-46.2c-6.6,38.3,9.7,79.4,15.9,93.2c4.4-3.7,8.7-7.3,13-11
					C143.9,215.4,134.7,202.9,126.7,183.5z"/>
			</g>
		</g>
		<g clip-path="url(#SVGID_2_)">
			<g>
				<path fill="#51504C" d="M138.9,132.3c1.1,11.7,3.2,28.1,7.2,40.8c0,0-13.2-7.9-19.2-20c0,0-3.2,24.2,5.5,47.9
					c0,0,12.6-3,25.1-10.4c12.4-7.4,13.2-13.7,13.2-13.7S145.1,156.4,138.9,132.3z"/>
			</g>
		</g>
		<g clip-path="url(#SVGID_2_)">
			<path fill="#FFFFFF" d="M161.3,188.1c8.7-6.3,9.3-11.2,9.3-11.2s-25.6-20.5-31.7-44.6C140.1,151.8,157.8,183,161.3,188.1z"/>
		</g>
	</g>
	<g>
		<g display="none">
			<path display="inline" fill="#1B293B" stroke="#1B293B" stroke-width="11" stroke-linecap="round" stroke-miterlimit="10" d="
				M43.5-6.7c0,0,5.3,28.3,8,44.1c0.3,1.8,2.2,3,3.9,2.5c5.8-1.7,18.4-4.8,33.6-5.5c1.9-0.1,3.8-0.1,5.7-0.1
				c17.6,0,32.7,3.8,39.3,5.6c0,0,0,0,0.1,0c1.8,0.5,3.6-0.6,3.9-2.5c2.7-15.7,8-44.1,8-44.1c-3.3,0.6-6.7,6.1-6.7,6.1s-2-2.8-4-0.8
				c-0.1,0.1-0.2,0.2-0.3,0.4c-2,2.7,1.8,5.4,1.8,5.4s0,3.3-2,7.5c-2,4.3-9.5,3.6-11.6,0.3c-2.3-3.7-0.6-8.7-0.6-8.7
				s3.6,0.1,3.8-3.5c0-0.2,0-0.4,0-0.7c-0.3-4.4-5.8-6.1-8.8-2.8c-0.5,0.5-0.8,1-1,1.5c-0.8,2.4,2.3,4.7,2.3,4.7s-1.7,7.9-5.8,9
				c-5,1.3-8.5-1.3-10.1-2.8c-4.2-4.1-3.9-10.6-3.9-10.6s4.6-0.1,5.2-3.5c0.8-5.3-6-5.8-6-5.8s3.7-5.4-3.6-12.5
				c-7.3,7-3.6,12.5-3.6,12.5s-6.5,0.6-5.9,5.7c0.3,2.3,5.5,3.6,5.5,3.6s0.3,5.1-4.1,10.4c-1.4,1.6-5.4,3.7-10.3,3
				c-4.3-0.6-5.8-9-5.8-9s3.1-2.2,2.3-4.7c-0.2-0.5-0.5-0.9-0.9-1.4c-3-3.4-8.7-1.7-8.9,2.8c0,0.2,0,0.4,0,0.5
				c0.3,3.5,3.8,3.5,3.8,3.5s1.8,4.9-0.6,8.7c-2.1,3.3-9.5,4-11.6-0.3c-2-4.3-2-7.5-2-7.5s3.9-2.8,1.8-5.4c-2-2.7-4.3,0.5-4.3,0.5
				S46.7-6.1,43.5-6.7z"/>
			<path display="inline" fill="#FFFFFF" d="M134.8,37.5l-0.8,1.4c0,0,0,0,0.1,0c1.8,0.5,3.6-0.6,3.9-2.5c2.7-15.7,8-43.1,8-43.1
				c-3.3,0.6-6.7,6.1-6.7,6.1s-2-2.8-4-0.8c0.1,0,1.1,0.4,2.1,1.4c3.1,2.9,3.6,8.2,3.6,8.2l-6.5,19c-3.1-0.5-13.1,1.6-13.1,1.6
				C130.1,30.6,134.8,37.5,134.8,37.5z"/>
			<path display="inline" fill="#1B293B" d="M138,36.4c0,0,0-1.1-2.2-1.9c-3.3-1.2-9.8-3.7-19.1-5.2c0,0,8.6-2,19.9,1.9
				c1.6,0.6,2.2-0.3,2.6-1.4c0.1-0.3,0.6,2.5,0.9,2.6L138,36.4z"/>
			<path display="inline" fill="#1B293B" d="M50.3,35.5c0,0,1.2,1.5,1.2,1.1c-0.1-1.1,0.2-1.7,0.9-2c3.1-1.3,9.8-3.7,19.3-5.3
				c0,0-7.2-2.2-18.4,1c-1.9,0.5-2.7,0.4-3.3-1.6c0,0-1.3,3.6-1.7,3.8L50.3,35.5z"/>
		</g>
	</g>
</g>
<path fill="none" stroke="#000000" stroke-miterlimit="10" d="M928.9,137.7"/>
<path fill="none" stroke="#000000" stroke-miterlimit="10" d="M990.5,49.6"/>
<g>
	<g>
		<path d="M291.5,180.5V71.8h-42.8V46.6h116.7v25.2h-42.8v108.6H291.5z"/>
		<path d="M381.9,180.5V46.6h31v108.6h67.1v25.2H381.9z"/>
		<path d="M528.5,180.5h-31V46.6h101.2v24.9h-70.2V180.5z M526.2,106.8h64.3v24.9h-64.3V106.8z"/>
		<path d="M655.8,180.5V46.6h25.6l79,96.4H748V46.6h30.6v133.9h-25.4L674,84.1h12.4v96.4H655.8z"/>
		<path d="M841.2,155.6H914v24.9H810.4V46.6h101.2v24.9h-70.4V155.6z M838.9,100.5H999v24.1H838.9V100.5z"/>
		<path d="M1034.6,123.8l43.6,57.1h-35.8l-24.5-35.3 M1017.7,80.9l23.6-33.9h33.7l-40.4,55"/>
		<path d="M1163.4,182.8c-19,0-33.9-5.3-44.6-15.9c-10.7-10.6-16.1-25.7-16.1-45.3v-75h31v73.8c0,12.8,2.6,21.9,7.8,27.5
			c5.2,5.6,12.6,8.4,22,8.4c9.4,0,16.8-2.8,22-8.4c5.2-5.6,7.8-14.8,7.8-27.5V46.6h30.6v75c0,19.6-5.4,34.7-16.1,45.3
			C1197.2,177.5,1182.4,182.8,1163.4,182.8z"/>
		<path d="M1298.6,182.8c-10.7,0-21-1.4-30.8-4.3c-9.8-2.9-17.7-6.6-23.7-11.2l10.5-23.3c5.7,4.1,12.5,7.4,20.4,10
			c7.8,2.6,15.8,3.9,23.8,3.9c6.1,0,11.1-0.6,14.8-1.8c3.8-1.2,6.5-2.9,8.3-5.1c1.8-2.2,2.7-4.7,2.7-7.5c0-3.6-1.4-6.4-4.2-8.5
			c-2.8-2.1-6.5-3.8-11.1-5.2c-4.6-1.3-9.7-2.6-15.2-3.8c-5.5-1.2-11.1-2.7-16.6-4.5c-5.5-1.8-10.6-4.1-15.2-6.9
			c-4.6-2.8-8.3-6.5-11.2-11.1c-2.9-4.6-4.3-10.5-4.3-17.6c0-7.7,2.1-14.6,6.2-20.9c4.1-6.3,10.4-11.3,18.7-15.1
			c8.3-3.8,18.8-5.6,31.5-5.6c8.4,0,16.7,1,24.9,3c8.2,2,15.4,4.9,21.6,8.9l-9.6,23.5c-6.2-3.6-12.5-6.2-18.7-7.9
			c-6.3-1.7-12.4-2.6-18.4-2.6c-6,0-10.9,0.7-14.7,2.1c-3.8,1.4-6.6,3.2-8.2,5.5c-1.7,2.2-2.5,4.8-2.5,7.7c0,3.4,1.4,6.2,4.2,8.3
			c2.8,2.1,6.5,3.8,11.1,5.1c4.6,1.3,9.7,2.6,15.2,3.8c5.5,1.3,11.1,2.7,16.6,4.4c5.5,1.7,10.6,3.9,15.2,6.7
			c4.6,2.8,8.3,6.5,11.2,11.1c2.9,4.6,4.3,10.4,4.3,17.4c0,7.5-2.1,14.4-6.3,20.7c-4.2,6.2-10.5,11.3-18.8,15.1
			C1321.9,180.8,1311.4,182.8,1298.6,182.8z"/>
	</g>
	<path d="M1024.6,112.6l-7.9,11l-39.4,56.8h-35.8l58-80.3v22.2l-54.7-75.7h33.7l37.5,53.9L1024.6,112.6z"/>
</g>
<path fill="none" stroke="#000000" stroke-miterlimit="10" d="M949.4,49.6"/>
<path fill="none" stroke="#000000" stroke-miterlimit="10" d="M928.9,93.7"/>
<path fill="none" stroke="#000000" stroke-miterlimit="10" d="M991.6,183.5"/>
</svg>
