<?xml version="1.0" encoding="utf-8"?>
<!-- Generator: Adobe Illustrator 18.1.1, SVG Export Plug-In . SVG Version: 6.00 Build 0)  -->
<svg version="1.1" id="Layer_1" xmlns="http://www.w3.org/2000/svg" xmlns:xlink="http://www.w3.org/1999/xlink" x="0px" y="0px"
	 viewBox="0 0 2141 231" enable-background="new 0 0 2141 231" xml:space="preserve">
<g>
	<g>
		<path stroke="#000000" stroke-width="10" stroke-miterlimit="10" d="M44.3,197.9c-22.9-11-37.6-34.5-37.6-59.9V6.6H186V138
			c0,25.4-14.8,48.9-37.6,59.9l-52,25.1L44.3,197.9z"/>
		<path fill="#1A293B" d="M143.8,188.5l-47.5,22.9l-47.5-22.9C29.4,179.1,17,159.5,17,138V17h158.6v121
			C175.6,159.6,163.2,179.2,143.8,188.5z"/>
		<path fill="#585655" d="M144,189.1L96.5,212L49,189.1c-19.4-9.4-31.8-29-31.8-50.5v-121h158.6v121
			C175.7,160.1,163.4,179.8,144,189.1z"/>
		<path fill="#383838" d="M17.3,143.9c2,19.2,13.8,36.1,31.4,44.6l47.5,22.9l47.5-22.9c19.4-9.4,31.8-29,31.8-50.5V17
			C175.6,17,18.6,144.5,17.3,143.9z"/>
		<g>
			<path fill="#CCCBCB" d="M175.6,17v121c0,21.5-12.3,41.2-31.8,50.5l-47.5,22.9l-47.5-22.9C29.4,179.1,17,159.5,17,138V17L175.6,17
				 M178.6,14h-3H17h-3v3v121c0,11.1,3.1,22,9.1,31.4c5.9,9.4,14.4,17,24.4,21.8L95,214.1l1.3,0.6l1.3-0.6l47.5-22.9
				c10-4.8,18.5-12.4,24.4-21.8c5.9-9.4,9.1-20.3,9.1-31.4V17L178.6,14L178.6,14z"/>
		</g>
	</g>
	<g>
		<g>
			<defs>
				<path id="SVGID_1_" d="M143.8,188.5l-47.5,22.9l-47.5-22.9C29.4,179.1,17,159.5,17,138V17h158.6v31.3L188,101l-12.4,26.7V138
					C175.6,159.6,163.2,179.2,143.8,188.5z"/>
			</defs>
			<clipPath id="SVGID_2_">
				<use xlink:href="#SVGID_1_"  overflow="visible"/>
			</clipPath>
			<g clip-path="url(#SVGID_2_)">
				<path d="M143.4,101.3l22.2-29.1c0,0-0.8-24.6-36.4-33c-35.5-8.4-74.4-4-72.9-0.3c1.2,2.9,2.3,4.1,3.2,4.4
					C43.7,47.7,22,72.9,15.4,90.2c-4,10.5-4.3,55.8-5.2,66.4c-0.5,6,10.1,25.3,24.3,45.4c12,4.4,24.2,8.1,36.6,11.1
					c14.1,3.4,28.5,5.7,43,7.1c5.1-3.6,10.1-7.3,14.9-11.3c8.1-6.8,25.9-12.8,32.6-21c4-4.8,9-17.4,12.7-22.4
					C139.4,134,143.4,101.3,143.4,101.3z"/>
				<g>
					<path fill="#AFAEA9" d="M26.9,192.3c9.9,15,25,23.9,41.1,38c9.9,8.7,17.9,15.6,24.4,21.2c3.5,3,6.6,5.6,9.2,7.8
						c23.6-20.1,47.7-39.6,70.7-60.3c-9.4-13.2-42.7-63.2-33.9-103.6c0.1-0.4,7.2-6.5,7.3-6.9c3.1-13.6,12.9-15.8,12.9-15.8
						s0.7-11.6-12.7-21.1c-17.6-12.2-61.6-15.3-77.9-12c0,0,2.9,1.7,5.7,2.8c3.9,1.5,5.3,2.9,5.3,2.9S67.6,44,55.8,51.5
						C43.9,59,35.1,69.8,31,75.2c-1.5,2-2.3,3.2-2.4,3.4c0.2-0.3,3.7-4.1,8.3-7l0.1-0.1c0.6-0.4,1.3-0.8,2-1.1
						c0.4-0.2,0.9-0.4,1.3-0.6c5.9-2.7,12.4-3.6,12.4-3.6c-1.1,0.7-22,22.1-32.4,43.5c-3.2,6.7-5.5,12.9-7,18.4l0,0
						c-3.9,14-5,31.9-5,31.9s0.7,1.4,2,3.9c0.4,0.8,0.9,1.8,1.5,2.8c1.9,3.6,4.5,8.3,7.8,13.8C21.8,184.2,24.2,188.1,26.9,192.3z"/>
				</g>
				<path fill="#FFFFFF" d="M102.6,39.7c5.8,1.5,11.4,3.4,17.1,5.4c4.8,1.6,9.6,3.5,13.8,6.2c4.2,2.8,7.3,6.6,10,11
					c2.9,4.8,5.3,9.9,8,14.7c0,0,0,0.1,0.1,0.1c3.5-3.5,7-4.3,7-4.3s0.7-11.6-12.7-21.1c-9.9-7-28.3-11-45.3-12.5
					C101.2,39.3,101.9,39.5,102.6,39.7z"/>
				<g>
					<path fill="#686868" d="M53.9,80.6c0,0,6.1-2.5,11.4-3.2c0,0-23.5,23.8-32.8,53.3c-4.4,14-8.3,29.2-11.2,41.2
						c-3.3-5.5-5.9-10.3-7.8-13.8c-0.5-10.1-0.7-20.8-0.2-30l0,0c1.5-5.5,3.8-11.7,7-18.4c10.4-21.5,31.3-42.8,32.4-43.5
						c0,0-6.5,0.9-12.4,3.6c6.9-3.6,15.6-7,25.5-8.5C65.8,61.1,58.5,68.2,53.9,80.6z"/>
				</g>
				<g>
					<path fill="#686868" d="M138.4,95.4l-0.4-15h-5.2c0,0-8.3,15.2-29.6,22.2c-15.8,5.2-27.5,7.1-39.7,18.4
						c0.5-0.1,6.9-1.1,10.3-1.1c0,0-33.9,20-43.1,49.7c-6.8,22.1-5,34.4-3.5,33.7c9.9,15,24.7,12.8,40.8,26.9
						c9.9,8.7,17.9,15.6,24.4,21.2l8.3,8.6c11.7-10,23.6-19.9,35.3-29.8l17-52.8C153,177.5,128.2,142.3,138.4,95.4z"/>
				</g>
				<path fill="#FFFFFF" d="M134,200.3c2.2,4.8,4.6,9.4,7.2,13.9l11.8-36.7c0,0-24.9-35.2-14.7-82.1l-0.4-15h-0.2
					c-7.5,10.2-12.4,22.2-15.1,34.5c-3,13.5-3.2,27.2-1.2,40.9C123.5,171.2,127.7,186.2,134,200.3z"/>
				<path d="M129.2,110.1l-22.6-4.9c0,0-22.5,10.3-20.3,34.6c0,0,5.7-9,11-12.5c0,0-10.8,15.5-9.5,47c1.1,26.1,7.1,43.9,7.1,43.9
					s-2.6-33.6,6-52.7c0,0,2.1,46.5,23.7,74.3c7.1-5.9,14.1-11.8,21.2-17.8l7.2-44.5C153,177.5,122.6,153.4,129.2,110.1z"/>
				<path d="M167.9,67.5c-6.3-2.8-20.6-4.2-27.6-3.4c-4.6,0.5-6.1,0.6-6.1,0.6s-5,3-7.6,9.3c0,0,1.9-0.2,4.5,0.7
					c0,0-1.9,11-5.4,17.4c-1.3,2.4-8.4,7.1-19.2,13.1c0.4,1.8,6.8,3.8,7.1,5.6c4.9-0.5,8.1-1,8.1-1s-1.3,7.6,0.8,11.3
					c0,0,7.9-12.3,29.2-16.2c8.6-1.6,13.7-2.3,15.8,3.8c1.2,3.4,1.7,8,1.7,8s14-3.1,16.6-19.9C188.3,81.8,177.8,71.8,167.9,67.5z"/>
				<g>
					<g>
						<path fill="#E1E1E1" d="M163.9,71.8c-5.7-2.9-14-4-19.6-4c-2.2,0-5.3,0.4-6.8,1.1c4.6-0.6,10,4.5,10,4.5
							c-4.2-0.3-9.2,0.7-10.5,1.8c-1.3,1.1-4.8,4.1-11.3,13.1s-19,16.9-19,16.9s10.8-4.8,22.9-10c11.3-4.9,31.4-7.1,38.6-3.5
							c7.2,3.5,6.7,13.6,6.7,13.6s4.4-2.7,5.1-9.7C181.2,81.6,169.6,74.7,163.9,71.8z"/>
					</g>
					<g>
						<path fill="#FFFFFF" d="M163.9,71.8c-5.7-2.9-14-4-19.6-4c-2.2,0-5.3,0.4-6.8,1.1c6.7-1.2,17.3,0.4,24.8,4.7
							c6.8,3.9,11.5,11.7,11.4,16.8c0,0-0.8-0.3-5.6-0.4c-1.7,0-6.5,0.2-6.5,0.2c2.7,0.2,4.9,0.8,6.5,1.5c7.2,3.5,6.7,13.6,6.7,13.6
							s4.4-2.7,5.1-9.7C181.2,81.6,169.6,74.7,163.9,71.8z"/>
					</g>
					<g>
						<path fill="#51504C" d="M106.6,105.2c0,0,8.4-6.7,22.9-10c18.5-4.2,29.1,2.4,29.1,2.4s-15.8,2.4-22.3,5.7
							c-6.5,3.3-8.5,5.1-8.5,5.1s0.7-4.1,2.2-6.3C129.9,102.2,115.7,102.3,106.6,105.2z"/>
					</g>
					<path d="M122.7,91.7c-10.5,7.1-34,11.6-40,24.1c0,0,6.2-3.1,16.5-5.6S122.7,91.7,122.7,91.7z"/>
				</g>
				<g>
					<g>
						<path fill="#383838" d="M109.1,68.2c-5.6-1.4-11.3-3.2-16.3-6.2c-6.1-0.7-13.2,1.8-13.2,1.8s4.3,0,5.9,1.6
							c0.8,0.8,0,2.2-0.1,6.3c-0.1,9.5,11.3,10.2,20.3,8.2c8.1-1.8,14.3-4.6,16.1-9.5C116.2,69.4,114.5,69.5,109.1,68.2z"/>
					</g>
					<path d="M121.5,63.3c0,0-1.5,4.9-4.5,4.4c-4.3-0.7-17.2-10.4-26.1-10.4c-4.1,0-8.1,4.5-11.2,6.6c0,0,6.5-1.4,11.5,0.8
						c0,0-0.7,4.5,5,8.5s15.9,0.2,15.9,0.2s0.1,3.4-8.9,5.1c0,0,11.9,1.3,17-4.7C123.9,69.2,121.5,63.3,121.5,63.3z"/>
					<path fill="#AFAEA9" d="M110.4,68.9c-5.6,0.2-12.9-3.5-14.7-3.6c-0.1-0.1,0.1,6.2,4.1,8.9C106.3,78.5,110.4,68.9,110.4,68.9z"
						/>
					<path fill="#FFFFFF" d="M98.4,66.1c0,2.1,1.1,3.9,3.3,4.2c2.1,0.3,5.3-1.7,5.3-1.7s-1.8-0.9-4-1.3
						C100.4,67,98.4,66.1,98.4,66.1z"/>
					<path d="M102.9,67.4c1.3,0.4,1.6,1.1,1.1,2c-0.6,0.9-3,0.8-3,0.8s1.1,0.9,3.3,0.8c4-0.2,4.4-2.1,4.4-2.1s-1-1.5-2.9-1.8
						C103.8,66.8,102.9,67.4,102.9,67.4z"/>
				</g>
				<path d="M146.8,221.2c10.1-8.6,20.1-17.3,29.9-26.3c-9.5-18.1-36.6-70.9-39.8-88.8c0,0-11,20.9,0.2,65.4
					C141.9,190.3,145.5,213.2,146.8,221.2z"/>
				<path fill="#FFFFFF" d="M91.6,67.6c0,0,0,4.8,6.3,7.7c5,2.3,14.1-2,14.1-2s-8.9,2.6-15-0.7C91.5,69.5,91.6,67.6,91.6,67.6z"/>
				<path d="M31.5,212.1l-7.4-14.9c0,0-1.2-37.2,19.8-72.2c0,0-17.9,15-25.8,38.9c3.5-19.8,11-48,26.5-80c0,0-18.3,10.1-33.4,37.3
					c-11.8,21.4-7.7,59.8-5.4,75.3C14.5,201.4,23.1,206.7,31.5,212.1z"/>
				<path d="M66.3,188.4c-3.5-30.6-0.8-52.4-0.8-52.4s-11.4,13.2-19.8,42.1c-4.9,16.9-6.6,30.4-7.2,38.6c14.6,9.7,28.8,19.9,43,30.3
					C75.8,233.5,69.1,213.2,66.3,188.4z"/>
				<path d="M144.8,79.1c-0.4-0.1-0.8-0.2-1.2-0.3c1.4-0.9,3.8-1.5,3.8-1.5s-5.6-1-7.3,1.1c-1.7,2.2-1.8,5.6,1.5,3.9l0,0
					c0.5-0.2,1.2-0.4,1.8-0.7C145.7,80.8,146.6,79.6,144.8,79.1z"/>
				<path d="M156.9,65.4c1.7-1.6-9.5-1.6-20.6-6.8c-12-5.6-18.2-1.9-18.2-1.9s3.8,0,8.6,2.9c7,4.2,2.9,9.4,18,7.4
					C154.6,65.7,156.9,65.4,156.9,65.4z"/>
				<g>
					<path fill="#51504C" d="M128.1,183.8c-9.9-24-8.5-46.2-8.5-46.2c-6.6,38.3,9.7,79.4,15.9,93.2c4.4-3.7,8.7-7.3,13-11
						C145.3,215.7,136.1,203.2,128.1,183.8z"/>
				</g>
			</g>
		</g>
		<g>
			<defs>
				<path id="SVGID_3_" d="M143.8,188.5l-47.5,22.9l-47.5-22.9C29.4,179.1,17,159.5,17,138V17h158.6v31.3L188,101l-12.4,26.7V138
					C175.6,159.6,163.2,179.2,143.8,188.5z"/>
			</defs>
			<clipPath id="SVGID_4_">
				<use xlink:href="#SVGID_3_"  overflow="visible"/>
			</clipPath>
			<g clip-path="url(#SVGID_4_)">
				<g>
					<path fill="#51504C" d="M140.3,132.6c1.1,11.7,3.2,28.1,7.2,40.8c0,0-13.2-7.9-19.2-20c0,0-3.2,24.2,5.5,47.9
						c0,0,12.6-3,25.1-10.4c12.4-7.4,13.2-13.7,13.2-13.7S146.5,156.7,140.3,132.6z"/>
				</g>
			</g>
		</g>
		<g>
			<defs>
				<path id="SVGID_5_" d="M143.8,188.5l-47.5,22.9l-47.5-22.9C29.4,179.1,17,159.5,17,138V17h158.6v31.3L188,101l-12.4,26.7V138
					C175.6,159.6,163.2,179.2,143.8,188.5z"/>
			</defs>
			<clipPath id="SVGID_6_">
				<use xlink:href="#SVGID_5_"  overflow="visible"/>
			</clipPath>
			<g clip-path="url(#SVGID_6_)">
				<path fill="#FFFFFF" d="M162.7,188.4c8.7-6.3,9.3-11.2,9.3-11.2s-25.6-20.5-31.7-44.6C141.5,152.1,159.2,183.3,162.7,188.4z"/>
			</g>
		</g>
	</g>
	<g>
		<g display="none">
			<path display="inline" fill="#1A293B" stroke="#1A293B" stroke-width="11" stroke-linecap="round" stroke-miterlimit="10" d="
				M44.9-6.4c0,0,5.3,28.3,8,44.1c0.3,1.8,2.2,3,3.9,2.5c5.8-1.7,18.4-4.8,33.6-5.5c1.9-0.1,3.8-0.1,5.7-0.1
				c17.6,0,32.7,3.8,39.3,5.6c0,0,0,0,0.1,0c1.8,0.5,3.6-0.6,3.9-2.5c2.7-15.7,8-44.1,8-44.1c-3.3,0.6-6.7,6.1-6.7,6.1s-2-2.8-4-0.8
				c-0.1,0.1-0.2,0.2-0.3,0.4c-2,2.7,1.8,5.4,1.8,5.4s0,3.3-2,7.5c-2,4.3-9.5,3.6-11.6,0.3c-2.3-3.7-0.6-8.7-0.6-8.7
				s3.6,0.1,3.8-3.5c0-0.2,0-0.4,0-0.7c-0.3-4.4-5.8-6.1-8.8-2.8c-0.5,0.5-0.8,1-1,1.5c-0.8,2.4,2.3,4.7,2.3,4.7s-1.7,7.9-5.8,9
				c-5,1.3-8.5-1.3-10.1-2.8c-4.2-4.1-3.9-10.6-3.9-10.6s4.6-0.1,5.2-3.5c0.8-5.3-6-5.8-6-5.8s3.7-5.4-3.6-12.5
				c-7.3,7-3.6,12.5-3.6,12.5S86-10.1,86.6-5c0.3,2.3,5.5,3.6,5.5,3.6S92.4,3.7,88,9c-1.4,1.6-5.4,3.7-10.3,3c-4.3-0.6-5.8-9-5.8-9
				s3.1-2.2,2.3-4.7c-0.2-0.5-0.5-0.9-0.9-1.4c-3-3.4-8.7-1.7-8.9,2.8c0,0.2,0,0.4,0,0.5c0.3,3.5,3.8,3.5,3.8,3.5s1.8,4.9-0.6,8.7
				c-2.1,3.3-9.5,4-11.6-0.3c-2-4.3-2-7.5-2-7.5s3.9-2.8,1.8-5.4c-2-2.7-4.3,0.5-4.3,0.5S48.1-5.8,44.9-6.4z"/>
			<path display="inline" fill="#FFFFFF" d="M136.2,37.8l-0.8,1.4c0,0,0,0,0.1,0c1.8,0.5,3.6-0.6,3.9-2.5c2.7-15.7,8-43.1,8-43.1
				c-3.3,0.6-6.7,6.1-6.7,6.1s-2-2.8-4-0.8c0.1,0,1.1,0.4,2.1,1.4c3.1,2.9,3.6,8.2,3.6,8.2l-6.5,19c-3.1-0.5-13.1,1.6-13.1,1.6
				C131.5,30.9,136.2,37.8,136.2,37.8z"/>
			<path display="inline" fill="#1A293B" d="M139.4,36.7c0,0,0-1.1-2.2-1.9c-3.3-1.2-9.8-3.7-19.1-5.2c0,0,8.6-2,19.9,1.9
				c1.6,0.6,2.2-0.3,2.6-1.4c0.1-0.3,0.6,2.5,0.9,2.6L139.4,36.7z"/>
			<path display="inline" fill="#1A293B" d="M51.7,35.8c0,0,1.2,1.5,1.2,1.1c-0.1-1.1,0.2-1.7,0.9-2c3.1-1.3,9.8-3.7,19.3-5.3
				c0,0-7.2-2.2-18.4,1C52.8,31.1,52,31,51.4,29c0,0-1.3,3.6-1.7,3.8L51.7,35.8z"/>
		</g>
	</g>
</g>
<path fill="none" stroke="#000000" stroke-miterlimit="10" d="M930.3,138"/>
<path fill="none" stroke="#000000" stroke-miterlimit="10" d="M991.9,49.9"/>
<g>
	<g>
		<path d="M292.9,180.8V72.1h-42.8V46.9h116.7v25.2H324v108.6h-31.1V180.8z"/>
		<path d="M383.3,180.8V46.9h31v108.6h67.1v25.2h-98.1V180.8z"/>
		<path d="M529.9,180.8h-31V46.9h101.2v24.9h-70.2V180.8z M527.6,107.1h64.3V132h-64.3V107.1z"/>
		<path d="M657.2,180.8V46.9h25.6l79,96.4h-12.4V46.9H780v133.9h-25.4l-79.2-96.4h12.4v96.4H657.2z"/>
		<path d="M842.6,155.9h72.8v24.9H811.8V46.9H913v24.9h-70.4V155.9z M840.3,100.8h160.1v24.1H840.3V100.8z"/>
		<path d="M1036,124.1l43.6,57.1h-35.8l-24.5-35.3 M1019.1,81.2l23.6-33.9h33.7l-40.4,55"/>
		<path d="M1164.8,183.1c-19,0-33.9-5.3-44.6-15.9c-10.7-10.6-16.1-25.7-16.1-45.3v-75h31v73.8c0,12.8,2.6,21.9,7.8,27.5
			c5.2,5.6,12.6,8.4,22,8.4s16.8-2.8,22-8.4c5.2-5.6,7.8-14.8,7.8-27.5V46.9h30.6v75c0,19.6-5.4,34.7-16.1,45.3
			C1198.6,177.8,1183.8,183.1,1164.8,183.1z"/>
		<path d="M1300,183.1c-10.7,0-21-1.4-30.8-4.3c-9.8-2.9-17.7-6.6-23.7-11.2l10.5-23.3c5.7,4.1,12.5,7.4,20.4,10
			c7.8,2.6,15.8,3.9,23.8,3.9c6.1,0,11.1-0.6,14.8-1.8c3.8-1.2,6.5-2.9,8.3-5.1c1.8-2.2,2.7-4.7,2.7-7.5c0-3.6-1.4-6.4-4.2-8.5
			c-2.8-2.1-6.5-3.8-11.1-5.2c-4.6-1.3-9.7-2.6-15.2-3.8c-5.5-1.2-11.1-2.7-16.6-4.5s-10.6-4.1-15.2-6.9s-8.3-6.5-11.2-11.1
			c-2.9-4.6-4.3-10.5-4.3-17.6c0-7.7,2.1-14.6,6.2-20.9s10.4-11.3,18.7-15.1c8.3-3.8,18.8-5.6,31.5-5.6c8.4,0,16.7,1,24.9,3
			c8.2,2,15.4,4.9,21.6,8.9l-9.6,23.5c-6.2-3.6-12.5-6.2-18.7-7.9c-6.3-1.7-12.4-2.6-18.4-2.6s-10.9,0.7-14.7,2.1
			c-3.8,1.4-6.6,3.2-8.2,5.5c-1.7,2.2-2.5,4.8-2.5,7.7c0,3.4,1.4,6.2,4.2,8.3c2.8,2.1,6.5,3.8,11.1,5.1c4.6,1.3,9.7,2.6,15.2,3.8
			c5.5,1.3,11.1,2.7,16.6,4.4c5.5,1.7,10.6,3.9,15.2,6.7c4.6,2.8,8.3,6.5,11.2,11.1c2.9,4.6,4.3,10.4,4.3,17.4
			c0,7.5-2.1,14.4-6.3,20.7c-4.2,6.2-10.5,11.3-18.8,15.1C1323.3,181.1,1312.8,183.1,1300,183.1z"/>
	</g>
	<path d="M1026,112.9l-7.9,11l-39.4,56.8h-35.8l58-80.3v22.2l-54.7-75.7h33.7l37.5,53.9L1026,112.9z"/>
</g>
<path fill="none" stroke="#000000" stroke-miterlimit="10" d="M950.8,49.9"/>
<path fill="none" stroke="#000000" stroke-miterlimit="10" d="M930.3,94"/>
<path fill="none" stroke="#000000" stroke-miterlimit="10" d="M993,183.8"/>
<g>
	<path d="M1486.5,184c-10.6,0-20.4-1.7-29.3-5.1c-8.9-3.4-16.6-8.2-23.2-14.5c-6.6-6.3-11.7-13.6-15.4-22.1
		c-3.6-8.4-5.5-17.7-5.5-27.8c0-10.1,1.8-19.4,5.5-27.8c3.6-8.4,8.8-15.8,15.5-22.1c6.7-6.3,14.5-11.1,23.4-14.5
		c9-3.4,18.8-5.1,29.6-5.1c11.9,0,22.6,2,32.2,6c9.5,4,17.6,9.7,24.1,17.3l-20,18.4c-4.9-5.1-10.2-8.9-15.9-11.4s-12-3.7-18.8-3.7
		c-6.5,0-12.5,1-17.9,3.1c-5.4,2-10,5-13.9,8.8c-3.9,3.8-6.9,8.4-9,13.6c-2.1,5.3-3.2,11.1-3.2,17.5c0,6.3,1.1,12,3.2,17.3
		c2.1,5.3,5.1,9.8,9,13.7c3.9,3.9,8.5,6.9,13.8,8.9c5.3,2,11.2,3.1,17.6,3.1c6.1,0,12.1-1,18-3c5.8-2,11.5-5.3,17-10.1l17.7,22.5
		c-7.3,5.5-15.8,9.7-25.4,12.7C1505.7,182.5,1496.1,184,1486.5,184z M1512.4,162.9v-50.5h28.4v54.5L1512.4,162.9z"/>
	<path d="M1569.6,181.7V47.3h58.2c12,0,22.4,2,31.1,5.9c8.7,3.9,15.4,9.5,20.2,16.8c4.7,7.3,7.1,16,7.1,26.1c0,10-2.4,18.6-7.1,25.8
		c-4.7,7.2-11.5,12.8-20.2,16.6c-8.7,3.8-19.1,5.8-31.1,5.8h-40.9l13.8-13.6v51.1H1569.6z M1600.8,134.1l-13.8-14.6h39.2
		c9.6,0,16.8-2.1,21.5-6.2c4.7-4.2,7.1-9.9,7.1-17.2c0-7.4-2.4-13.2-7.1-17.3c-4.7-4.1-11.9-6.1-21.5-6.1h-39.2l13.8-14.8V134.1z
		 M1655.1,181.7l-33.6-48.8h33.2l34,48.8H1655.1z"/>
	<path d="M1776,184c-10.6,0-20.4-1.7-29.5-5.2c-9-3.5-16.8-8.3-23.4-14.6c-6.6-6.3-11.7-13.6-15.4-22.1c-3.6-8.4-5.5-17.7-5.5-27.6
		c0-10,1.8-19.2,5.5-27.6c3.6-8.4,8.8-15.8,15.5-22.1c6.7-6.3,14.5-11.1,23.4-14.6c9-3.5,18.7-5.2,29.2-5.2
		c10.6,0,20.4,1.7,29.3,5.2c8.9,3.5,16.6,8.3,23.2,14.6c6.6,6.3,11.7,13.6,15.5,22c3.7,8.4,5.6,17.6,5.6,27.7
		c0,10-1.9,19.2-5.6,27.7c-3.7,8.5-8.9,15.9-15.5,22.1c-6.6,6.2-14.3,11-23.2,14.5C1796.2,182.3,1786.5,184,1776,184z M1775.9,157.5
		c6,0,11.6-1,16.6-3.1c5.1-2,9.5-5,13.3-8.8c3.8-3.8,6.8-8.4,8.9-13.6c2.1-5.2,3.2-11.1,3.2-17.5c0-6.4-1.1-12.2-3.2-17.5
		c-2.1-5.2-5.1-9.8-8.8-13.6c-3.8-3.8-8.2-6.8-13.3-8.8c-5.1-2-10.7-3.1-16.7-3.1c-6,0-11.6,1-16.6,3.1c-5.1,2-9.5,5-13.3,8.8
		c-3.8,3.8-6.8,8.4-8.9,13.6c-2.1,5.3-3.2,11.1-3.2,17.5c0,6.3,1.1,12.1,3.2,17.4c2.1,5.3,5.1,9.9,8.8,13.7
		c3.8,3.8,8.2,6.8,13.3,8.8C1764.3,156.5,1769.8,157.5,1775.9,157.5z"/>
	<path d="M1932.5,184c-19.1,0-34-5.3-44.7-15.9c-10.8-10.6-16.1-25.8-16.1-45.5V47.3h31.1v74.1c0,12.8,2.6,22,7.9,27.6
		c5.2,5.6,12.6,8.4,22.1,8.4c9.5,0,16.8-2.8,22.1-8.4c5.2-5.6,7.9-14.8,7.9-27.6V47.3h30.7v75.3c0,19.7-5.4,34.9-16.1,45.5
		C1966.5,178.7,1951.6,184,1932.5,184z"/>
	<path d="M2024.1,181.7V47.3h58.2c12,0,22.4,2,31.1,5.9c8.7,3.9,15.4,9.5,20.2,16.8c4.7,7.3,7.1,16,7.1,26.1c0,10-2.4,18.6-7.1,25.9
		c-4.7,7.3-11.5,12.9-20.2,16.8c-8.7,3.9-19.1,5.9-31.1,5.9h-40.9l13.8-14v51.1H2024.1z M2055.2,134.1l-13.8-14.8h39.2
		c9.6,0,16.8-2,21.5-6.1c4.7-4.1,7.1-9.8,7.1-17.1c0-7.4-2.4-13.2-7.1-17.3c-4.7-4.1-11.9-6.1-21.5-6.1h-39.2l13.8-14.8V134.1z"/>
</g>
</svg>
