<?xml version="1.0" encoding="utf-8"?>
<!-- Generator: Adobe Illustrator 18.1.1, SVG Export Plug-In . SVG Version: 6.00 Build 0)  -->
<svg width='270px' height='253px' version="1.1" id="Layer_1" xmlns="http://www.w3.org/2000/svg" xmlns:xlink="http://www.w3.org/1999/xlink" x="0px" y="0px"
	 viewBox="0 0 270 253" enable-background="new 0 0 270 253" xml:space="preserve">
<path fill="#1658A0" d="M243.4,169.3c2.8-0.2,8.2-3,12.3-6.2c4.1-3.1,10.6-12,10.6-12c-3.1-0.2-9.5,3.2-13.7,5.7s-7.3,6.7-8.6,7.5
	c-1.2,0.8-2.8,1.2-2.8,1.2l-0.6,0.3c2.9-7,5-14.4,6.5-22c0.7-0.6,1.8-1.4,3.4-2.1c2.5-1.1,6.9-5.5,9.6-9.9
	c4.6-7.5,7.1-15.6,7.1-15.6c-3.2,1.3-8.8,7-11.8,10.9c-3.1,4.2-5.6,7.9-5.9,9.7c-0.2,0.9-1,2.1-1.6,2.8c0.6-4.3,1-8.8,1.2-13.3
	c0.6-0.5,1.4-1.1,2.4-1.6c2.4-1.3,6.1-6.3,8.4-10.9c4-7.9,4.5-16.6,4.5-16.6c-2.8,2.1-6.9,8-9.5,12.1c-2.8,4.4-4.8,8.8-5.4,9.8
	c-0.1,0.2-0.2,0.5-0.3,0.8c-0.1-3.3-0.3-6.6-0.7-9.9c0.5-0.5,1.2-1,2-1.5c2.3-1.5,5.6-6.8,7.6-11.5c3.4-8.1,3.3-16.9,3.3-16.9
	c-2.6,2.3-6.4,7.8-8.7,12.1c-2.5,4.6-3.6,9.4-3.9,11.2c-0.1,0.6-0.5,1.5-0.8,2.4c-0.4-2.5-0.9-5-1.4-7.5c0.3-0.6,0.8-1.5,1.7-2.9
	c1.6-2.3,4-8.1,5.1-13.1c1.9-8.6,0.2-17.2,0.2-17.2c-2.2,2.8-4.9,8.8-6.4,13.5c-1.6,5-1.8,9.9-1.8,11.7c0,0.6-0.1,1.4-0.3,2.1
	c-0.9-3.3-2-6.5-3.2-9.7c0.5-0.3,1-1.4,1.8-2.7c1.4-2.4,2.4-8.2,2.5-13.4c0.1-8.8-3.2-16.9-3.2-16.9c-1.6,3.1-2.8,8.9-3.2,14.3
	c-0.4,5,0,9.8-0.7,11.9c-1.3-2.8-2.7-5.6-4.2-8.3c0.1-0.6,0.5-2.4,1.6-4.3c1.4-2.4,1.8-8.6,1.4-13.7c-0.7-8.8-4.9-16.5-4.9-16.5
	c-1.3,3.3-2.1,9.8-2.2,14.8c-0.1,5.2,0.1,8.4,0.7,10.1c0.5,1.4,0.4,4.2,0.4,4.2l1.6,3.3c-2.2-3.7-4.6-7.2-7.1-10.6
	c0.2-1.1,0.6-3,0.7-3.7c0.5-2.7,0.9-7.6-0.2-13.2c-1.8-8.7-6.1-16.1-6.1-16.1c-1,3.4-1.3,10-1,14.9c0.3,5.2,1.7,8.8,2.4,10.5
	c0.4,1,0.4,2.2,0.4,2.7c-2.8-3.3-5.8-6.5-8.9-9.5l2.2,1.8c0,0,0.2-2.6,0.2-3.5c0-2.7,0.7-6-1.3-11c-3-7.7-9.3-15-9.3-15
	c-0.3,3.4-0.1,8.6,1.6,14.2c1.5,4.8,3,7.9,3.9,9.3c0.6,0.9,0.7,2.1,0.8,2.5c-2.4-2.2-5-4.3-7.6-6.4l0.1,0c0,0-0.1-0.1-0.2-0.7
	c-0.1-0.8,0-5.8-1.8-12c-2.5-8.6-12.2-17.5-12.2-17.5s1.1,10.5,4.2,16.7c2.7,5.4,7.3,11.9,8.4,13.4l0,0c0,0,0,0,0.1,0
	c0.1,0.1,0.2,0.2,0.2,0.2l-0.6-0.1c0,0-1.6-1.4-8.7-1.9c-10.1-0.7-17,0.6-17,0.6s7.9,4.8,17.3,6.6C202,39.3,206,37.6,208,37
	c2.9,2.6,5.7,5.3,8.4,8.2l-1.8-1.2c0,0-2.4-0.5-6.5-1.4c-10-2.3-15.5-2.1-15.5-2.1s5.8,5.4,15,8.9c8.3,3.1,12.4,2.4,14.3,2.3
	c3,3.7,5.8,7.6,8.3,11.6l-0.8-0.9c0,0-2.2-1.1-5.9-3.1c-9-5-14.3-6.2-14.3-6.2s4,6.7,11.7,12.8c6.3,5,12.1,6.4,14.5,6.9
	c1.7,3.4,3.2,6.9,4.5,10.5c-0.4-0.3-2.2-1.9-4.9-4.3c-7.6-6.9-12.2-9.6-12.2-9.6s1.3,7.8,8.1,15.7c6.1,7.1,10.3,8.7,12.3,9.1
	c1,4.1,1.7,8.2,2.1,12.5c-0.6-0.3-1.6-1.1-3.4-3.9C235.7,92.5,231,89.3,231,89.3s-0.2,8,4.9,17c4.5,7.9,8.1,11.4,10,12.9
	c0,0.3,0,0.6,0,0.9c-0.2,4.1-0.5,8-1,11.9c-0.5-0.6-1-1.9-1.7-4.3c-3.2-11.6-6.8-16-6.8-16s-1.5,7,0.3,17.2
	c1.9,10.9,5,13.9,6.2,14.7c-0.6,3-1.4,5.9-2.2,8.7c-0.2-1.1-0.4-2.5-0.7-4.5c-1.6-11.9-4.5-16.8-4.5-16.8s-2.4,6.7-2.1,17.1
	c0.3,9.4,2.3,13.3,3.5,14.8c-1.2,2.9-2.5,5.6-3.8,8.3c0-1.1,0-2.5,0-4.4c-0.1-9.7-1.9-17.4-1.9-17.4s-4.1,8.7-5.2,16.4
	c-0.9,5.8,0.5,12.5,1.3,15.4c-1.7,2.5-3.4,4.9-5.3,7.2c-0.4-0.7-0.5-2.5,0.2-6.6c1.6-9.6-0.6-16.5-0.6-16.5s-5.1,8.4-6.4,14.9
	c-1.1,5.1-0.3,12.9,0.1,15.9c-2.5,2.6-5.2,5.1-8,7.4c0.8-2.6,1.9-6.5,2.4-8.2c0.8-2.7,3-14.3,3-14.3s-7.3,5.5-10.3,14
	c-2.2,6.3-2.8,12-3,14.5c-2.9,2-6,3.9-9.1,5.7c0.3-0.7,2.1-4.8,4.3-8.1c2.3-3.6,5-12,4.8-12.1c0,0-1.2,0.3-2,1
	c-1.7,1.3-9.1,7.4-12.5,13.6c-2.8,5.1-3.8,9-4,10.5c-4.7,2.2-9.7,4.1-14.8,5.8l4.2-4.6l0,0c0.6-0.5,1.3-1.1,1.9-1.8
	c6.2-6.1,9.3-14.7,9.3-14.7s-9.6,4.8-14,9.7c-4.5,4.8-8.4,13.5-8.4,13.5l6.6,4.3c-0.1,0-0.1,0-0.1,0s5.7,4.7,14.3,6.8
	c8.6,2.1,17.6,0.1,17.6,0.1s-6.3-4.6-12.9-5.9c-2.5-0.5-5.9-1.4-9.7-1.7c-1.7-0.2,0-1.2,0.2-1.6c1.7-0.7,3.4-1.4,5-2.1l0,0
	c0,0,9,4.6,14.2,4.9c5.2,0.2,19.4-1.6,19.4-1.6c-1.9-1.4-6.6-3.7-14.6-4.7c-4.4-0.5-8.5-0.2-10.9-0.6c-1.1-0.2-1.3-0.8-1.3-1.3
	c3.5-1.9,6.9-3.9,10.2-6.1c-1.7,1.4-3.2,2.6-3.2,2.6s4.7,3.2,13.5,2.5c8.8-0.8,18.9-6.3,18.9-6.3s-10-1.4-17.1-1.1
	c-2.8,0.1-5.6,1.9-8.8,1.7c-1-0.1,2.2-3.1,1.4-2.7c0,0,0,0,0,0c1.7-1.3,3.4-2.6,5.1-4c0,0,9,2.2,13.9,0.5c4.9-1.7,17.3-8.8,17.3-8.8
	c-2.3-0.6-7.5-1.4-15.4,0.7c-3.6,1-5,1.4-7.1,1.9c-1.3,0.4-1.5-0.3-1.5-1c1.9-1.8,3.6-3.7,5.4-5.6c2.5,0,10.8-0.1,18-2.9
	c4.9-1.9,13.1-9.7,13.1-9.7c-2.3,0.1-7.3,0.2-14.9,3.1c-3.5,1.3-6.5,2.9-8.7,3.7c-1.2,0.4-1.4-0.5-1.2-1.6c1.4-1.9,2.8-3.9,4.1-5.9
	c2.6-0.4,10.6-1.8,17.2-5.6c4.5-2.6,11.5-11.6,11.5-11.6c-2.3,0.5-7.2,1.3-14.3,5.2c-4.9,2.7-9,5.3-11,6.6c2.1-3.5,3.9-7.1,5.6-10.8
	C240,169.4,241.6,169.4,243.4,169.3z M202.7,32.7l0.1,0c0,0,0,0,0,0L202.7,32.7z"/>
<path fill="#1658A0" d="M30.9,169.4c1.7,3.7,3.5,7.3,5.6,10.8c-2-1.3-6.1-3.8-11-6.6c-7.1-3.9-12-4.8-14.3-5.2c0,0,7,9,11.5,11.6
	c6.6,3.7,14.6,5.2,17.2,5.6c1.3,2,2.7,4,4.1,5.9c0.2,1.1,0,2.1-1.2,1.6c-2.3-0.8-5.2-2.4-8.7-3.7c-7.6-2.9-12.6-2.9-14.9-3.1
	c0,0,8.2,7.9,13.1,9.7c7.2,2.8,15.5,2.9,18,2.9c1.7,1.9,3.5,3.8,5.4,5.6c0.1,0.7-0.1,1.3-1.5,1c-2.1-0.6-3.5-0.9-7.1-1.9
	c-7.8-2.1-13.1-1.3-15.4-0.7c0,0,12.4,7,17.3,8.8c4.9,1.7,13.9-0.5,13.9-0.5c1.7,1.4,3.4,2.7,5.1,4c0,0,0,0,0,0
	c-0.7-0.4,2.4,2.7,1.4,2.7c-3.1,0.2-5.9-1.6-8.8-1.7c-7.1-0.2-17.1,1.1-17.1,1.1s10.1,5.5,18.9,6.3c8.8,0.8,13.5-2.5,13.5-2.5
	s-1.5-1.2-3.2-2.6c3.3,2.2,6.7,4.2,10.2,6.1c0,0.5-0.2,1.2-1.3,1.3c-2.4,0.4-6.5,0-10.9,0.6c-8,1-12.7,3.3-14.6,4.7
	c0,0,14.2,1.8,19.4,1.6c5.2-0.2,14.2-4.9,14.2-4.9l0,0c1.7,0.8,3.3,1.5,5,2.1c0.2,0.4,1.8,1.4,0.2,1.6c-3.8,0.4-7.2,1.3-9.7,1.7
	c-6.5,1.3-12.9,5.9-12.9,5.9s9,2,17.6-0.1s14.3-6.8,14.3-6.8s0,0-0.1,0l6.6-4.3c0,0-3.9-8.6-8.4-13.5c-4.5-4.8-14-9.7-14-9.7
	s3,8.6,9.3,14.7c0.6,0.6,1.3,1.2,1.9,1.8l0,0l4.2,4.6c-5.1-1.7-10-3.6-14.8-5.8c-0.1-1.5-1.2-5.4-4-10.5
	c-3.4-6.2-10.8-12.3-12.5-13.6c-0.9-0.7-2-1-2-1c-0.3,0.1,2.4,8.6,4.8,12.1c2.1,3.2,3.9,7.3,4.3,8.1c-3.1-1.8-6.2-3.7-9.1-5.7
	c-0.2-2.4-0.8-8.1-3-14.5c-2.9-8.5-10.3-14-10.3-14s2.2,11.6,3,14.3c0.5,1.7,1.6,5.5,2.4,8.2c-2.8-2.3-5.4-4.8-8-7.4
	c0.4-3,1.1-10.8,0.1-15.9c-1.3-6.4-6.4-14.9-6.4-14.9s-2.2,7-0.6,16.5c0.7,4.1,0.6,5.9,0.2,6.6c-1.9-2.3-3.6-4.7-5.3-7.2
	c0.7-2.9,2.1-9.7,1.3-15.4c-1.1-7.7-5.2-16.4-5.2-16.4s-1.8,7.7-1.9,17.4c0,1.9,0,3.3,0,4.4c-1.4-2.7-2.7-5.5-3.8-8.3
	c1.3-1.6,3.2-5.4,3.5-14.8c0.3-10.4-2.1-17.1-2.1-17.1s-2.9,4.8-4.5,16.8c-0.3,2-0.5,3.4-0.7,4.5c-0.8-2.8-1.6-5.7-2.2-8.7
	c1.2-0.8,4.4-3.8,6.2-14.7c1.8-10.2,0.3-17.2,0.3-17.2s-3.5,4.4-6.8,16c-0.7,2.5-1.3,3.7-1.7,4.3c-0.5-3.8-0.8-7.8-1-11.9
	c0-0.3,0-0.6,0-0.9c1.9-1.4,5.5-4.9,10-12.9c5.1-9,4.9-17,4.9-17s-4.6,3.2-11.2,13.3c-1.8,2.7-2.8,3.6-3.4,3.9
	c0.4-4.2,1.1-8.4,2.1-12.5c2-0.3,6.2-1.9,12.3-9.1c6.8-7.9,8.1-15.7,8.1-15.7s-4.6,2.6-12.2,9.6c-2.7,2.5-4.5,4-4.9,4.3
	c1.3-3.6,2.8-7.1,4.5-10.5c2.4-0.6,8.2-2,14.5-6.9c7.7-6,11.7-12.8,11.7-12.8s-5.3,1.2-14.3,6.2c-3.6,2-5.9,3.1-5.9,3.1l-0.8,0.9
	c2.5-4,5.3-7.9,8.3-11.6c2,0.2,6,0.9,14.3-2.3c9.1-3.5,15-8.9,15-8.9s-5.5-0.2-15.5,2.1c-4,0.9-6.5,1.4-6.5,1.4l-1.8,1.2
	c2.7-2.9,5.5-5.6,8.4-8.2c2,0.7,6,2.3,14.2,0.8c9.4-1.7,17.3-6.6,17.3-6.6s-6.8-1.2-17-0.6c-7.1,0.5-8.7,1.9-8.7,1.9l-0.6,0.1
	c0,0,0.1-0.1,0.2-0.2c0,0,0,0,0.1,0l0,0c1.1-1.5,5.6-8,8.4-13.4c3.1-6.2,4.2-16.7,4.2-16.7s-9.7,8.9-12.2,17.5
	c-1.8,6.3-1.7,11.2-1.8,12c-0.1,0.6-0.1,0.7-0.2,0.7l0.1,0c-2.6,2-5.1,4.1-7.6,6.4c0-0.5,0.2-1.6,0.8-2.5c0.9-1.4,2.4-4.6,3.9-9.3
	c1.7-5.6,2-10.8,1.6-14.2c0,0-6.3,7.3-9.3,15c-2,5-1.3,8.4-1.3,11c0,0.9,0.2,3.5,0.2,3.5l2.2-1.8c-3.1,3-6.1,6.2-8.9,9.5
	c0-0.5-0.1-1.7,0.4-2.7c0.7-1.7,2.1-5.3,2.4-10.5c0.3-4.9,0-11.5-1-14.9c0,0-4.4,7.4-6.1,16.1c-1.2,5.6-0.7,10.5-0.2,13.2
	c0.1,0.7,0.5,2.6,0.7,3.7c-2.6,3.4-4.9,6.9-7.1,10.6l1.6-3.3c0,0-0.1-2.8,0.4-4.2c0.6-1.7,0.7-4.8,0.7-10.1
	c-0.1-4.9-0.9-11.5-2.2-14.8c0,0-4.1,7.7-4.9,16.5c-0.4,5.1,0,11.3,1.4,13.7c1.1,1.9,1.5,3.7,1.6,4.3c-1.5,2.7-2.9,5.5-4.2,8.3
	c-0.8-2.1-0.3-6.9-0.7-11.9c-0.4-5.4-1.7-11.1-3.2-14.3c0,0-3.4,8.1-3.2,16.9c0.1,5.1,1.1,11,2.5,13.4c0.8,1.3,1.4,2.3,1.8,2.7
	c-1.2,3.2-2.3,6.4-3.2,9.7c-0.2-0.8-0.3-1.6-0.3-2.1c0-1.8-0.2-6.7-1.8-11.7c-1.5-4.7-4.2-10.7-6.4-13.5c0,0-1.7,8.6,0.2,17.2
	c1.1,5,3.5,10.8,5.1,13.1c0.9,1.3,1.4,2.3,1.7,2.9c-0.6,2.5-1,5-1.4,7.5c-0.4-0.8-0.7-1.7-0.8-2.4c-0.3-1.8-1.4-6.6-3.9-11.2
	c-2.3-4.3-6.1-9.8-8.7-12.1c0,0-0.1,8.7,3.3,16.9c2,4.7,5.2,10,7.6,11.5c0.8,0.5,1.4,1,2,1.5c-0.4,3.3-0.6,6.5-0.7,9.9
	c-0.1-0.3-0.2-0.5-0.3-0.8c-0.6-1.1-2.6-5.4-5.4-9.8c-2.6-4.2-6.7-10-9.5-12.1c0,0,0.5,8.7,4.5,16.6c2.3,4.6,6,9.6,8.4,10.9
	c1,0.5,1.8,1.1,2.4,1.6c0.1,4.5,0.5,8.9,1.2,13.3c-0.6-0.8-1.5-1.9-1.6-2.8c-0.3-1.8-2.7-5.5-5.9-9.7c-3-3.9-8.5-9.6-11.8-10.9
	c0,0,2.5,8,7.1,15.6c2.7,4.4,7,8.8,9.6,9.9c1.5,0.7,2.7,1.5,3.4,2.1c1.4,7.6,3.6,15,6.5,22l-0.6-0.3c0,0-1.6-0.4-2.8-1.2
	c-1.2-0.8-4.3-5.1-8.6-7.5c-4.3-2.4-10.6-5.9-13.7-5.7c0,0,6.5,8.9,10.6,12c4.1,3.1,9.6,6,12.3,6.2C28.4,169.4,30,169.4,30.9,169.4z
	 M67.2,32.7C67.2,32.7,67.2,32.7,67.2,32.7l0.1,0L67.2,32.7z"/>
<g>
	<path fill="#BB2630" d="M62.9,84V63.4h2.4L74.6,79h-1.3l9.1-15.6h2.4l0,20.6H82l0-16.2h0.7l-8.1,13.7h-1.4L65,67.9h0.7V84H62.9z"/>
	<path fill="#BB2630" d="M91,84V63.4H94V84H91z"/>
	<path fill="#BB2630" d="M100.2,84V63.4h2.4l13.6,16.9h-1.3V63.4h2.9V84h-2.4l-13.6-16.9h1.3V84H100.2z"/>
	<path fill="#BB2630" d="M133.4,84.3c-1.6,0-3-0.3-4.4-0.8s-2.5-1.3-3.5-2.2c-1-1-1.7-2.1-2.3-3.3s-0.8-2.7-0.8-4.2
		c0-1.5,0.3-2.9,0.8-4.2c0.5-1.3,1.3-2.4,2.3-3.3c1-1,2.1-1.7,3.5-2.2s2.8-0.8,4.4-0.8c1.6,0,3,0.3,4.3,0.8c1.3,0.5,2.5,1.3,3.5,2.2
		c1,1,1.8,2.1,2.3,3.3c0.5,1.3,0.8,2.7,0.8,4.2c0,1.5-0.3,2.9-0.8,4.2c-0.5,1.3-1.3,2.4-2.3,3.3s-2.1,1.7-3.5,2.2
		C136.4,84,134.9,84.3,133.4,84.3z M133.4,81.6c1.1,0,2.2-0.2,3.2-0.6c1-0.4,1.8-0.9,2.5-1.7c0.7-0.7,1.3-1.6,1.7-2.5s0.6-2,0.6-3.1
		c0-1.1-0.2-2.2-0.6-3.1s-1-1.8-1.7-2.5c-0.7-0.7-1.6-1.3-2.5-1.7c-1-0.4-2-0.6-3.2-0.6c-1.2,0-2.2,0.2-3.2,0.6
		c-1,0.4-1.8,0.9-2.5,1.7s-1.3,1.6-1.7,2.5c-0.4,1-0.6,2-0.6,3.1c0,1.1,0.2,2.2,0.6,3.1c0.4,1,1,1.8,1.7,2.5s1.6,1.3,2.5,1.7
		C131.1,81.5,132.2,81.6,133.4,81.6z"/>
	<path fill="#BB2630" d="M148.8,84V63.4h8c1.8,0,3.3,0.3,4.6,0.9c1.3,0.6,2.3,1.4,2.9,2.5c0.7,1.1,1,2.4,1,3.9c0,1.5-0.3,2.8-1,3.8
		c-0.7,1.1-1.7,1.9-2.9,2.5c-1.3,0.6-2.8,0.9-4.6,0.9h-6.4l1.3-1.4V84H148.8z M151.7,76.7l-1.3-1.4h6.3c1.9,0,3.3-0.4,4.3-1.2
		c1-0.8,1.5-2,1.5-3.4S162,68,161,67.2s-2.4-1.2-4.3-1.2h-6.3l1.3-1.5V76.7z M162.6,84l-5.2-7.5h3.1l5.3,7.5H162.6z"/>
	<path fill="#BB2630" d="M170.2,84V63.4h2.9V84H170.2z"/>
	<path fill="#BB2630" d="M183.4,84V66h-7.1v-2.6h17V66h-7.1v18H183.4z"/>
	<path fill="#BB2630" d="M201.3,84v-7.9L202,78l-8.9-14.5h3.1l7.4,12.3H202l7.5-12.3h2.9L203.6,78l0.6-1.8V84H201.3z"/>
</g>
<g>
	<path fill="#BB2630" d="M81,123.8c-1.7,0-3.3-0.3-4.7-0.9c-1.4-0.6-2.7-1.4-3.8-2.4c-1.1-1-1.9-2.2-2.5-3.6
		c-0.6-1.4-0.9-2.9-0.9-4.5c0-1.6,0.3-3.1,0.9-4.5c0.6-1.4,1.4-2.6,2.5-3.6c1.1-1,2.3-1.8,3.7-2.4c1.4-0.6,3-0.9,4.7-0.9
		c1.7,0,3.2,0.3,4.7,0.8c1.4,0.6,2.7,1.4,3.7,2.4c1.1,1,1.9,2.2,2.5,3.6s0.9,2.9,0.9,4.5s-0.3,3.2-0.9,4.5c-0.6,1.4-1.4,2.6-2.5,3.6
		c-1.1,1-2.3,1.8-3.7,2.4C84.3,123.5,82.7,123.8,81,123.8z M81,120.9c1.2,0,2.4-0.2,3.4-0.6c1-0.4,2-1,2.7-1.8s1.4-1.7,1.8-2.7
		s0.6-2.2,0.6-3.4s-0.2-2.4-0.6-3.4c-0.4-1-1-1.9-1.8-2.7c-0.8-0.8-1.7-1.4-2.7-1.8c-1-0.4-2.2-0.6-3.4-0.6c-1.2,0-2.4,0.2-3.4,0.6
		c-1,0.4-2,1-2.7,1.8c-0.8,0.8-1.4,1.7-1.8,2.7c-0.4,1-0.6,2.2-0.6,3.4s0.2,2.4,0.6,3.4c0.4,1,1,1.9,1.8,2.7
		c0.8,0.8,1.7,1.4,2.7,1.8C78.6,120.7,79.8,120.9,81,120.9z"/>
	<path fill="#BB2630" d="M102,123.5l-7.4-22.2h3.3l6.8,20.5H103l7.1-20.5h2.9l6.9,20.5h-1.6l6.9-20.5h3l-7.4,22.2h-3.3l-6.5-19h0.9
		l-6.5,19H102z"/>
	<path fill="#BB2630" d="M132.1,123.5v-22.2h2.6l14.7,18.2H148v-18.2h3.2v22.2h-2.6l-14.7-18.2h1.4v18.2H132.1z"/>
	<path fill="#BB2630" d="M161,120.7h12.9v2.8h-16.1v-22.2h15.6v2.8H161V120.7z M160.7,110.9h11.4v2.7h-11.4V110.9z"/>
	<path fill="#BB2630" d="M179,123.5v-22.2h9.3c2.4,0,4.4,0.5,6.3,1.4c1.8,0.9,3.2,2.2,4.2,3.9c1,1.7,1.5,3.6,1.5,5.8
		c0,2.2-0.5,4.1-1.5,5.8c-1,1.7-2.4,3-4.2,3.9c-1.8,0.9-3.9,1.4-6.3,1.4H179z M182.2,120.7h6c1.8,0,3.4-0.3,4.8-1
		c1.3-0.7,2.4-1.7,3.1-2.9c0.7-1.3,1.1-2.7,1.1-4.4c0-1.7-0.4-3.1-1.1-4.4c-0.7-1.2-1.8-2.2-3.1-2.9c-1.3-0.7-2.9-1-4.8-1h-6V120.7z
		"/>
</g>
<g>
	<path fill="#BB2630" d="M93.9,161.7c-1.6,0-3-0.2-4.5-0.7c-1.4-0.5-2.5-1.1-3.4-1.9l1.1-2.3c0.8,0.7,1.8,1.2,3,1.7
		c1.2,0.4,2.5,0.7,3.8,0.7c1.2,0,2.1-0.1,2.9-0.4c0.7-0.3,1.3-0.6,1.6-1.1c0.3-0.5,0.5-1,0.5-1.6c0-0.7-0.2-1.3-0.7-1.7
		c-0.5-0.4-1-0.8-1.8-1c-0.7-0.3-1.5-0.5-2.4-0.7c-0.9-0.2-1.8-0.4-2.6-0.7c-0.9-0.3-1.7-0.6-2.4-1s-1.3-1-1.8-1.6
		c-0.4-0.7-0.7-1.6-0.7-2.7c0-1,0.3-2,0.8-2.9c0.6-0.9,1.4-1.6,2.6-2.1c1.2-0.5,2.6-0.8,4.4-0.8c1.2,0,2.4,0.2,3.5,0.5
		c1.2,0.3,2.2,0.8,3,1.3l-1,2.3c-0.9-0.6-1.8-1-2.8-1.3c-1-0.3-1.9-0.4-2.8-0.4c-1.1,0-2.1,0.1-2.8,0.4c-0.7,0.3-1.3,0.7-1.6,1.2
		c-0.3,0.5-0.5,1-0.5,1.6c0,0.7,0.2,1.3,0.7,1.7c0.5,0.4,1,0.8,1.8,1c0.7,0.3,1.5,0.5,2.4,0.7c0.9,0.2,1.8,0.4,2.6,0.7
		c0.9,0.3,1.7,0.6,2.4,1s1.3,1,1.8,1.6c0.4,0.7,0.7,1.6,0.7,2.6c0,1-0.3,2-0.8,2.9c-0.6,0.9-1.4,1.6-2.6,2.1
		C97.1,161.5,95.7,161.7,93.9,161.7z"/>
	<path fill="#BB2630" d="M106,161.5v-20.4h2.4l9.2,15.4h-1.3l9-15.4h2.4l0,20.4h-2.8l0-16h0.7l-8,13.5h-1.3l-8.1-13.5h0.7v16H106z"
		/>
	<path fill="#BB2630" d="M130.8,161.5l9.2-20.4h2.9l9.3,20.4h-3.1l-8.3-18.8h1.2l-8.3,18.8H130.8z M134.7,156.4l0.8-2.3H147l0.8,2.3
		H134.7z"/>
	<path fill="#BB2630" d="M155.2,161.5v-20.4h2.9V159h11v2.5H155.2z"/>
	<path fill="#BB2630" d="M172.5,161.5v-20.4h2.9V159h11v2.5H172.5z"/>
</g>
<g>
	<path fill="#BB2630" d="M78.7,193.8v-15.8h7.1c1.8,0,3.2,0.4,4.2,1.1c1,0.7,1.5,1.7,1.5,3c0,0.9-0.2,1.6-0.6,2.2s-0.9,1-1.6,1.4
		c-0.6,0.3-1.4,0.5-2.1,0.5l0.4-0.7c0.9,0,1.7,0.2,2.4,0.5c0.7,0.3,1.2,0.8,1.7,1.4s0.6,1.4,0.6,2.3c0,1.4-0.5,2.4-1.5,3.2
		s-2.5,1.1-4.5,1.1H78.7z M81,192h5.2c1.3,0,2.2-0.2,2.9-0.6s1-1.1,1-2c0-0.9-0.3-1.6-1-2c-0.7-0.4-1.6-0.6-2.9-0.6h-5.4v-1.8h4.8
		c1.1,0,2-0.2,2.7-0.6s1-1.1,1-1.9c0-0.8-0.3-1.5-1-1.9s-1.5-0.6-2.7-0.6H81V192z"/>
	<path fill="#BB2630" d="M102.4,194c-2.1,0-3.7-0.6-4.9-1.8c-1.2-1.2-1.8-2.9-1.8-5.2v-9H98v8.9c0,1.8,0.4,3.1,1.2,3.9
		s1.9,1.2,3.3,1.2c1.4,0,2.5-0.4,3.3-1.2s1.2-2.1,1.2-3.9v-8.9h2.2v9c0,2.3-0.6,4-1.8,5.2C106.2,193.4,104.5,194,102.4,194z"/>
	<path fill="#BB2630" d="M118.4,194c-1.2,0-2.4-0.2-3.5-0.6c-1.1-0.4-2-0.8-2.6-1.4l0.8-1.8c0.6,0.5,1.4,1,2.3,1.3
		c0.9,0.3,1.9,0.5,2.9,0.5c0.9,0,1.7-0.1,2.2-0.3c0.6-0.2,1-0.5,1.3-0.9c0.3-0.4,0.4-0.8,0.4-1.3c0-0.5-0.2-1-0.5-1.3
		s-0.8-0.6-1.4-0.8c-0.6-0.2-1.2-0.4-1.9-0.5c-0.7-0.2-1.4-0.3-2-0.5c-0.7-0.2-1.3-0.5-1.9-0.8c-0.6-0.3-1-0.7-1.4-1.3
		c-0.3-0.5-0.5-1.2-0.5-2.1c0-0.8,0.2-1.6,0.6-2.3c0.4-0.7,1.1-1.2,2-1.7s2-0.6,3.4-0.6c0.9,0,1.8,0.1,2.7,0.4
		c0.9,0.2,1.7,0.6,2.4,1l-0.7,1.8c-0.7-0.5-1.4-0.8-2.2-1s-1.5-0.3-2.2-0.3c-0.9,0-1.6,0.1-2.2,0.3c-0.6,0.2-1,0.5-1.3,0.9
		c-0.3,0.4-0.4,0.8-0.4,1.3c0,0.6,0.2,1,0.5,1.3c0.4,0.3,0.8,0.6,1.4,0.8s1.2,0.4,1.9,0.5c0.7,0.2,1.4,0.3,2,0.5
		c0.7,0.2,1.3,0.5,1.9,0.8c0.6,0.3,1,0.7,1.4,1.3c0.3,0.5,0.5,1.2,0.5,2c0,0.8-0.2,1.5-0.7,2.2c-0.4,0.7-1.1,1.2-2,1.7
		S119.8,194,118.4,194z"/>
	<path fill="#BB2630" d="M127.8,193.8v-15.8h2.3v15.8H127.8z"/>
	<path fill="#BB2630" d="M134.8,193.8v-15.8h1.9l10.5,13h-1v-13h2.3v15.8h-1.9l-10.5-13h1v13H134.8z"/>
	<path fill="#BB2630" d="M155.5,191.8h9.2v2h-11.5v-15.8h11.2v2h-8.9V191.8z M155.3,184.8h8.2v1.9h-8.2V184.8z"/>
	<path fill="#BB2630" d="M173,194c-1.2,0-2.4-0.2-3.5-0.6c-1.1-0.4-2-0.8-2.6-1.4l0.8-1.8c0.6,0.5,1.4,1,2.3,1.3
		c0.9,0.3,1.9,0.5,2.9,0.5c0.9,0,1.7-0.1,2.2-0.3c0.6-0.2,1-0.5,1.3-0.9c0.3-0.4,0.4-0.8,0.4-1.3c0-0.5-0.2-1-0.5-1.3
		s-0.8-0.6-1.4-0.8c-0.6-0.2-1.2-0.4-1.9-0.5c-0.7-0.2-1.4-0.3-2-0.5c-0.7-0.2-1.3-0.5-1.9-0.8c-0.6-0.3-1-0.7-1.4-1.3
		c-0.3-0.5-0.5-1.2-0.5-2.1c0-0.8,0.2-1.6,0.6-2.3c0.4-0.7,1.1-1.2,2-1.7c0.9-0.4,2-0.6,3.4-0.6c0.9,0,1.8,0.1,2.7,0.4
		c0.9,0.2,1.7,0.6,2.4,1l-0.7,1.8c-0.7-0.5-1.4-0.8-2.2-1s-1.5-0.3-2.2-0.3c-0.9,0-1.6,0.1-2.2,0.3s-1,0.5-1.3,0.9
		c-0.3,0.4-0.4,0.8-0.4,1.3c0,0.6,0.2,1,0.5,1.3c0.4,0.3,0.8,0.6,1.4,0.8c0.6,0.2,1.2,0.4,1.9,0.5c0.7,0.2,1.4,0.3,2,0.5
		c0.7,0.2,1.3,0.5,1.9,0.8c0.6,0.3,1,0.7,1.4,1.3c0.3,0.5,0.5,1.2,0.5,2c0,0.8-0.2,1.5-0.7,2.2c-0.4,0.7-1.1,1.2-2,1.7
		C175.6,193.8,174.4,194,173,194z"/>
	<path fill="#BB2630" d="M187.1,194c-1.2,0-2.4-0.2-3.5-0.6c-1.1-0.4-2-0.8-2.6-1.4l0.8-1.8c0.6,0.5,1.4,1,2.3,1.3
		c0.9,0.3,1.9,0.5,2.9,0.5c0.9,0,1.7-0.1,2.2-0.3c0.6-0.2,1-0.5,1.3-0.9c0.3-0.4,0.4-0.8,0.4-1.3c0-0.5-0.2-1-0.5-1.3
		s-0.8-0.6-1.4-0.8c-0.6-0.2-1.2-0.4-1.9-0.5c-0.7-0.2-1.4-0.3-2-0.5c-0.7-0.2-1.3-0.5-1.9-0.8c-0.6-0.3-1-0.7-1.4-1.3
		c-0.3-0.5-0.5-1.2-0.5-2.1c0-0.8,0.2-1.6,0.6-2.3c0.4-0.7,1.1-1.2,2-1.7c0.9-0.4,2-0.6,3.4-0.6c0.9,0,1.8,0.1,2.7,0.4
		c0.9,0.2,1.7,0.6,2.4,1l-0.7,1.8c-0.7-0.5-1.4-0.8-2.2-1s-1.5-0.3-2.2-0.3c-0.9,0-1.6,0.1-2.2,0.3s-1,0.5-1.3,0.9
		c-0.3,0.4-0.4,0.8-0.4,1.3c0,0.6,0.2,1,0.5,1.3c0.4,0.3,0.8,0.6,1.4,0.8c0.6,0.2,1.2,0.4,1.9,0.5c0.7,0.2,1.4,0.3,2,0.5
		c0.7,0.2,1.3,0.5,1.9,0.8c0.6,0.3,1,0.7,1.4,1.3c0.3,0.5,0.5,1.2,0.5,2c0,0.8-0.2,1.5-0.7,2.2c-0.4,0.7-1.1,1.2-2,1.7
		C189.6,193.8,188.5,194,187.1,194z"/>
</g>
</svg>
