<?xml version="1.0" encoding="utf-8"?>
<!-- Generator: Adobe Illustrator 18.1.1, SVG Export Plug-In . SVG Version: 6.00 Build 0)  -->
<svg width='270px' height='253px' version="1.1" id="Layer_1" xmlns="http://www.w3.org/2000/svg" xmlns:xlink="http://www.w3.org/1999/xlink" x="0px" y="0px"
	 viewBox="0 0 270 253" enable-background="new 0 0 270 253" xml:space="preserve">
<g>
	<g>
		<path fill="#1658A0" d="M243.2,168.4c2.8-0.2,8.2-3,12.3-6.2c4.1-3.1,10.6-12,10.6-12c-3.1-0.2-9.5,3.2-13.7,5.7
			c-4.3,2.4-7.3,6.7-8.6,7.5c-1.2,0.8-2.8,1.2-2.8,1.2l-0.6,0.3c2.9-7,5-14.4,6.5-22c0.7-0.6,1.8-1.4,3.4-2.1
			c2.5-1.1,6.9-5.5,9.6-9.9c4.6-7.5,7.1-15.6,7.1-15.6c-3.2,1.3-8.8,7-11.8,10.9c-3.1,4.2-5.6,7.9-5.9,9.7c-0.2,0.9-1,2.1-1.6,2.8
			c0.6-4.3,1-8.8,1.2-13.3c0.6-0.5,1.4-1.1,2.4-1.6c2.4-1.3,6.1-6.3,8.4-10.9c4-7.9,4.5-16.6,4.5-16.6c-2.8,2.1-6.9,8-9.5,12.1
			c-2.8,4.4-4.8,8.8-5.4,9.8c-0.1,0.2-0.2,0.5-0.3,0.8c-0.1-3.3-0.3-6.6-0.7-9.9c0.5-0.5,1.2-1,2-1.5c2.3-1.5,5.6-6.8,7.6-11.5
			c3.4-8.1,3.3-16.9,3.3-16.9c-2.6,2.3-6.4,7.8-8.7,12.1c-2.5,4.6-3.6,9.4-3.9,11.2c-0.1,0.6-0.5,1.5-0.8,2.4
			c-0.4-2.5-0.9-5-1.4-7.5c0.3-0.6,0.8-1.5,1.7-2.9c1.6-2.3,4-8.1,5.1-13.1c1.9-8.6,0.2-17.2,0.2-17.2c-2.2,2.8-4.9,8.8-6.4,13.5
			c-1.6,5-1.8,9.9-1.8,11.7c0,0.6-0.1,1.4-0.3,2.1c-0.9-3.3-2-6.5-3.2-9.7c0.5-0.3,1-1.4,1.8-2.7c1.4-2.4,2.4-8.2,2.5-13.4
			c0.1-8.8-3.2-16.9-3.2-16.9c-1.6,3.1-2.8,8.9-3.2,14.3c-0.4,5,0,9.8-0.7,11.9c-1.3-2.8-2.7-5.6-4.2-8.3c0.1-0.6,0.5-2.4,1.6-4.3
			c1.4-2.4,1.8-8.6,1.4-13.7c-0.7-8.8-4.9-16.5-4.9-16.5c-1.3,3.3-2.1,9.8-2.2,14.8c-0.1,5.2,0.1,8.4,0.7,10.1
			c0.5,1.4,0.4,4.2,0.4,4.2l1.6,3.3c-2.2-3.7-4.6-7.2-7.1-10.6c0.2-1.1,0.6-3,0.7-3.7c0.5-2.7,0.9-7.6-0.2-13.2
			c-1.8-8.7-6.1-16.1-6.1-16.1c-1,3.4-1.3,10-1,14.9c0.3,5.2,1.7,8.8,2.4,10.5c0.4,1,0.4,2.2,0.4,2.7c-2.8-3.3-5.8-6.5-8.9-9.5
			l2.2,1.8c0,0,0.2-2.6,0.2-3.5c0-2.7,0.7-6-1.3-11c-3-7.7-9.3-15-9.3-15c-0.3,3.4-0.1,8.6,1.6,14.2c1.5,4.8,3,7.9,3.9,9.3
			c0.6,0.9,0.7,2.1,0.8,2.5c-2.4-2.2-5-4.3-7.6-6.4l0.1,0c0,0-0.1-0.1-0.2-0.7c-0.1-0.8,0-5.8-1.8-12c-2.5-8.6-12.2-17.5-12.2-17.5
			s1.1,10.5,4.2,16.7c2.7,5.4,7.3,11.9,8.4,13.4l0,0c0,0,0,0,0.1,0c0.1,0.1,0.2,0.2,0.2,0.2l-0.6-0.1c0,0-1.6-1.4-8.7-1.9
			c-10.1-0.7-17,0.6-17,0.6s7.9,4.8,17.3,6.6c8.2,1.5,12.2-0.1,14.2-0.8c2.9,2.6,5.7,5.3,8.4,8.2l-1.8-1.2c0,0-2.4-0.5-6.5-1.4
			c-10-2.3-15.5-2.1-15.5-2.1s5.8,5.4,15,8.9c8.3,3.1,12.4,2.4,14.3,2.3c3,3.7,5.8,7.6,8.3,11.6l-0.8-0.9c0,0-2.2-1.1-5.9-3.1
			c-9-5-14.3-6.2-14.3-6.2s4,6.7,11.7,12.8c6.3,5,12.1,6.4,14.5,6.9c1.7,3.4,3.2,6.9,4.5,10.5c-0.4-0.3-2.2-1.9-4.9-4.3
			c-7.6-6.9-12.2-9.6-12.2-9.6s1.3,7.8,8.1,15.7c6.1,7.1,10.3,8.7,12.3,9.1c1,4.1,1.7,8.2,2.1,12.5c-0.6-0.3-1.6-1.1-3.4-3.9
			c-6.5-10.1-11.2-13.3-11.2-13.3s-0.2,8,4.9,17c4.5,7.9,8.1,11.4,10,12.9c0,0.3,0,0.6,0,0.9c-0.2,4.1-0.5,8-1,11.9
			c-0.5-0.6-1-1.9-1.7-4.3c-3.2-11.6-6.8-16-6.8-16s-1.5,7,0.3,17.2c1.9,10.9,5,13.9,6.2,14.7c-0.6,3-1.4,5.9-2.2,8.7
			c-0.2-1.1-0.4-2.5-0.7-4.5c-1.6-11.9-4.5-16.8-4.5-16.8s-2.4,6.7-2.1,17.1c0.3,9.4,2.3,13.3,3.5,14.8c-1.2,2.9-2.5,5.6-3.8,8.3
			c0-1.1,0-2.5,0-4.4c-0.1-9.7-1.9-17.4-1.9-17.4s-4.1,8.7-5.2,16.4c-0.9,5.8,0.5,12.5,1.3,15.4c-1.7,2.5-3.4,4.9-5.3,7.2
			c-0.4-0.7-0.5-2.5,0.2-6.6c1.6-9.6-0.6-16.5-0.6-16.5s-5.1,8.4-6.4,14.9c-1.1,5.1-0.3,12.9,0.1,15.9c-2.5,2.6-5.2,5.1-8,7.4
			c0.8-2.6,1.9-6.5,2.4-8.2c0.8-2.7,3-14.3,3-14.3s-7.3,5.5-10.3,14c-2.2,6.3-2.8,12-3,14.5c-2.9,2-6,3.9-9.1,5.7
			c0.3-0.7,2.1-4.8,4.3-8.1c2.3-3.6,5-12,4.8-12.1c0,0-1.2,0.3-2,1c-1.7,1.3-9.1,7.4-12.5,13.6c-2.8,5.1-3.8,9-4,10.5
			c-4.7,2.2-9.7,4.1-14.8,5.8l4.2-4.6l0,0c0.6-0.5,1.3-1.1,1.9-1.8c6.2-6.1,9.3-14.7,9.3-14.7s-9.6,4.8-14,9.7
			c-4.5,4.8-8.4,13.5-8.4,13.5l6.6,4.3c-0.1,0-0.1,0-0.1,0s5.7,4.7,14.3,6.8c8.6,2.1,17.6,0.1,17.6,0.1s-6.3-4.6-12.9-5.9
			c-2.5-0.5-5.9-1.4-9.7-1.7c-1.7-0.2,0-1.2,0.2-1.6c1.7-0.7,3.4-1.4,5-2.1l0,0c0,0,9,4.6,14.2,4.9c5.2,0.2,19.4-1.6,19.4-1.6
			c-1.9-1.4-6.6-3.7-14.6-4.7c-4.4-0.5-8.5-0.2-10.9-0.6c-1.1-0.2-1.3-0.8-1.3-1.3c3.5-1.9,6.9-3.9,10.2-6.1
			c-1.7,1.4-3.2,2.6-3.2,2.6s4.7,3.2,13.5,2.5c8.8-0.8,18.9-6.3,18.9-6.3s-10-1.4-17.1-1.1c-2.8,0.1-5.6,1.9-8.8,1.7
			c-1-0.1,2.2-3.1,1.4-2.7c0,0,0,0,0,0c1.7-1.3,3.4-2.6,5.1-4c0,0,9,2.2,13.9,0.5c4.9-1.7,17.3-8.8,17.3-8.8
			c-2.3-0.6-7.5-1.4-15.4,0.7c-3.6,1-5,1.4-7.1,1.9c-1.3,0.4-1.5-0.3-1.5-1c1.9-1.8,3.6-3.7,5.4-5.6c2.5,0,10.8-0.1,18-2.9
			c4.9-1.9,13.1-9.7,13.1-9.7c-2.3,0.1-7.3,0.2-14.9,3.1c-3.5,1.3-6.5,2.9-8.7,3.7c-1.2,0.4-1.4-0.5-1.2-1.6
			c1.4-1.9,2.8-3.9,4.1-5.9c2.6-0.4,10.6-1.8,17.2-5.6c4.5-2.6,11.5-11.6,11.5-11.6c-2.3,0.5-7.2,1.3-14.3,5.2
			c-4.9,2.7-9,5.3-11,6.6c2.1-3.5,3.9-7.1,5.6-10.8C239.8,168.5,241.4,168.5,243.2,168.4z M202.4,31.8l0.1,0c0,0,0,0,0,0L202.4,31.8
			z"/>
		<path fill="#1658A0" d="M248.8,148.1c-0.6,1.4-3.2,3-3.2,3l-1.6,3.7c0,0,1.9-1.2,4.6-1.7c2.7-0.5,7.9-3.8,11.7-7.3
			c3.8-3.5,9.2-13.4,9.2-13.4c-3.3,0.9-8.9,4.6-12.9,7.4C252.6,142.6,249.5,146.4,248.8,148.1z"/>
		<path fill="#1658A0" d="M203.9,31.6L203.9,31.6C203.8,31.6,203.9,31.6,203.9,31.6z"/>
	</g>
	<g>
		<path fill="#1658A0" d="M30.6,168.5c1.7,3.7,3.5,7.3,5.6,10.8c-2-1.3-6.1-3.8-11-6.6c-7.1-3.9-12-4.8-14.3-5.2c0,0,7,9,11.5,11.6
			c6.6,3.7,14.6,5.2,17.2,5.6c1.3,2,2.7,4,4.1,5.9c0.2,1.1,0,2.1-1.2,1.6c-2.3-0.8-5.2-2.4-8.7-3.7c-7.6-2.9-12.6-2.9-14.9-3.1
			c0,0,8.2,7.9,13.1,9.7c7.2,2.8,15.5,2.9,18,2.9c1.7,1.9,3.5,3.8,5.4,5.6c0.1,0.7-0.1,1.3-1.5,1c-2.1-0.6-3.5-0.9-7.1-1.9
			c-7.8-2.1-13.1-1.3-15.4-0.7c0,0,12.4,7,17.3,8.8c4.9,1.7,13.9-0.5,13.9-0.5c1.7,1.4,3.4,2.7,5.1,4c0,0,0,0,0,0
			c-0.7-0.4,2.4,2.7,1.4,2.7c-3.1,0.2-5.9-1.6-8.8-1.7c-7.1-0.2-17.1,1.1-17.1,1.1s10.1,5.5,18.9,6.3c8.8,0.8,13.5-2.5,13.5-2.5
			s-1.5-1.2-3.2-2.6c3.3,2.2,6.7,4.2,10.2,6.1c0,0.5-0.2,1.2-1.3,1.3c-2.4,0.4-6.5,0-10.9,0.6c-8,1-12.7,3.3-14.6,4.7
			c0,0,14.2,1.8,19.4,1.6c5.2-0.2,14.2-4.9,14.2-4.9l0,0c1.7,0.8,3.3,1.5,5,2.1c0.2,0.4,1.8,1.4,0.2,1.6c-3.8,0.4-7.2,1.3-9.7,1.7
			c-6.5,1.3-12.9,5.9-12.9,5.9s9,2,17.6-0.1s14.3-6.8,14.3-6.8s0,0-0.1,0l6.6-4.3c0,0-3.9-8.6-8.4-13.5c-4.5-4.8-14-9.7-14-9.7
			s3,8.6,9.3,14.7c0.6,0.6,1.3,1.2,1.9,1.8l0,0l4.2,4.6c-5.1-1.7-10-3.6-14.8-5.8c-0.1-1.5-1.2-5.4-4-10.5
			c-3.4-6.2-10.8-12.3-12.5-13.6c-0.9-0.7-2-1-2-1c-0.3,0.1,2.4,8.6,4.8,12.1c2.1,3.2,3.9,7.3,4.3,8.1c-3.1-1.8-6.2-3.7-9.1-5.7
			c-0.2-2.4-0.8-8.1-3-14.5c-2.9-8.5-10.3-14-10.3-14s2.2,11.6,3,14.3c0.5,1.7,1.6,5.5,2.4,8.2c-2.8-2.3-5.4-4.8-8-7.4
			c0.4-3,1.1-10.8,0.1-15.9c-1.3-6.4-6.4-14.9-6.4-14.9s-2.2,7-0.6,16.5c0.7,4.1,0.6,5.9,0.2,6.6c-1.9-2.3-3.6-4.7-5.3-7.2
			c0.7-2.9,2.1-9.7,1.3-15.4c-1.1-7.7-5.2-16.4-5.2-16.4s-1.8,7.7-1.9,17.4c0,1.9,0,3.3,0,4.4c-1.4-2.7-2.7-5.5-3.8-8.3
			c1.3-1.6,3.2-5.4,3.5-14.8c0.3-10.4-2.1-17.1-2.1-17.1s-2.9,4.8-4.5,16.8c-0.3,2-0.5,3.4-0.7,4.5c-0.8-2.8-1.6-5.7-2.2-8.7
			c1.2-0.8,4.4-3.8,6.2-14.7c1.8-10.2,0.3-17.2,0.3-17.2s-3.5,4.4-6.8,16c-0.7,2.5-1.3,3.7-1.7,4.3c-0.5-3.8-0.8-7.8-1-11.9
			c0-0.3,0-0.6,0-0.9c1.9-1.4,5.5-4.9,10-12.9c5.1-9,4.9-17,4.9-17s-4.6,3.2-11.2,13.3c-1.8,2.7-2.8,3.6-3.4,3.9
			c0.4-4.2,1.1-8.4,2.1-12.5c2-0.3,6.2-1.9,12.3-9.1c6.8-7.9,8.1-15.7,8.1-15.7s-4.6,2.6-12.2,9.6c-2.7,2.5-4.5,4-4.9,4.3
			c1.3-3.6,2.8-7.1,4.5-10.5c2.4-0.6,8.2-2,14.5-6.9c7.7-6,11.7-12.8,11.7-12.8s-5.3,1.2-14.3,6.2c-3.6,2-5.9,3.1-5.9,3.1l-0.8,0.9
			c2.5-4,5.3-7.9,8.3-11.6c2,0.2,6,0.9,14.3-2.3c9.1-3.5,15-8.9,15-8.9s-5.5-0.2-15.5,2.1c-4,0.9-6.5,1.4-6.5,1.4l-1.8,1.2
			c2.7-2.9,5.5-5.6,8.4-8.2c2,0.7,6,2.3,14.2,0.8c9.4-1.7,17.3-6.6,17.3-6.6s-6.8-1.2-17-0.6c-7.1,0.5-8.7,1.9-8.7,1.9l-0.6,0.1
			c0,0,0.1-0.1,0.2-0.2c0,0,0,0,0.1,0l0,0c1.1-1.5,5.6-8,8.4-13.4c3.1-6.2,4.2-16.7,4.2-16.7s-9.7,8.9-12.2,17.5
			c-1.8,6.3-1.7,11.2-1.8,12c-0.1,0.6-0.1,0.7-0.2,0.7l0.1,0c-2.6,2-5.1,4.1-7.6,6.4c0-0.5,0.2-1.6,0.8-2.5c0.9-1.4,2.4-4.6,3.9-9.3
			c1.7-5.6,2-10.8,1.6-14.2c0,0-6.3,7.3-9.3,15c-2,5-1.3,8.4-1.3,11c0,0.9,0.2,3.5,0.2,3.5l2.2-1.8c-3.1,3-6.1,6.2-8.9,9.5
			c0-0.5-0.1-1.7,0.4-2.7c0.7-1.7,2.1-5.3,2.4-10.5c0.3-4.9,0-11.5-1-14.9c0,0-4.4,7.4-6.1,16.1c-1.2,5.6-0.7,10.5-0.2,13.2
			c0.1,0.7,0.5,2.6,0.7,3.7c-2.6,3.4-4.9,6.9-7.1,10.6l1.6-3.3c0,0-0.1-2.8,0.4-4.2c0.6-1.7,0.7-4.8,0.7-10.1
			c-0.1-4.9-0.9-11.5-2.2-14.8c0,0-4.1,7.7-4.9,16.5c-0.4,5.1,0,11.3,1.4,13.7c1.1,1.9,1.5,3.7,1.6,4.3c-1.5,2.7-2.9,5.5-4.2,8.3
			c-0.8-2.1-0.3-6.9-0.7-11.9c-0.4-5.4-1.7-11.1-3.2-14.3c0,0-3.4,8.1-3.2,16.9c0.1,5.1,1.1,11,2.5,13.4c0.8,1.3,1.4,2.3,1.8,2.7
			c-1.2,3.2-2.3,6.4-3.2,9.7c-0.2-0.8-0.3-1.6-0.3-2.1c0-1.8-0.2-6.7-1.8-11.7C21.3,73,18.6,67,16.4,64.2c0,0-1.7,8.6,0.2,17.2
			c1.1,5,3.5,10.8,5.1,13.1c0.9,1.3,1.4,2.3,1.7,2.9c-0.6,2.5-1,5-1.4,7.5c-0.4-0.8-0.7-1.7-0.8-2.4c-0.3-1.8-1.4-6.6-3.9-11.2
			C15,87,11.3,81.5,8.6,79.2c0,0-0.1,8.7,3.3,16.9c2,4.7,5.2,10,7.6,11.5c0.8,0.5,1.4,1,2,1.5c-0.4,3.3-0.6,6.5-0.7,9.9
			c-0.1-0.3-0.2-0.5-0.3-0.8c-0.6-1.1-2.6-5.4-5.4-9.8c-2.6-4.2-6.7-10-9.5-12.1c0,0,0.5,8.7,4.5,16.6c2.3,4.6,6,9.6,8.4,10.9
			c1,0.5,1.8,1.1,2.4,1.6c0.1,4.5,0.5,8.9,1.2,13.3c-0.6-0.8-1.5-1.9-1.6-2.8c-0.3-1.8-2.7-5.5-5.9-9.7c-3-3.9-8.5-9.6-11.8-10.9
			c0,0,2.5,8,7.1,15.6c2.7,4.4,7,8.8,9.6,9.9c1.5,0.7,2.7,1.5,3.4,2.1c1.4,7.6,3.6,15,6.5,22l-0.6-0.3c0,0-1.6-0.4-2.8-1.2
			c-1.2-0.8-4.3-5.1-8.6-7.5c-4.3-2.4-10.6-5.9-13.7-5.7c0,0,6.5,8.9,10.6,12c4.1,3.1,9.6,6,12.3,6.2
			C28.1,168.5,29.7,168.5,30.6,168.5z M66.9,31.8C67,31.8,67,31.8,66.9,31.8l0.1,0L66.9,31.8z"/>
		<path fill="#1658A0" d="M20.7,148.2c0.6,1.4,3.2,3,3.2,3l1.6,3.7c0,0-1.9-1.2-4.6-1.7c-2.7-0.5-7.9-3.8-11.7-7.3
			C5.5,142.4,0,132.5,0,132.5c3.3,0.9,8.9,4.6,12.9,7.4C17,142.7,20,146.5,20.7,148.2z"/>
		<path fill="#1658A0" d="M65.7,31.7L65.7,31.7C65.7,31.7,65.7,31.7,65.7,31.7z"/>
	</g>
	<polygon fill="#BB2630" points="115,195.4 118.6,194.2 116.7,197.5 118.9,200.5 115.2,199.7 113,202.8 112.7,199 109.1,197.9 
		112.6,196.4 112.5,192.6 	"/>
	<polygon fill="#BB2630" points="155.9,196.6 159.3,198.1 155.7,199.2 155.3,203 153.1,199.8 149.4,200.6 151.8,197.6 149.9,194.3 
		153.4,195.6 156,192.8 	"/>
	<g>
		<g>
			<path fill="#BB2630" d="M73.8,127.5c0.7,2,2.7,5.7,6,5.7c1.8,0,3.1-1.1,3.1-3.3c0-2-1.3-3.2-3.4-4.1l-0.5-0.2
				c-2.8-1.3-5.9-3-5.9-6.7c0-3.8,2.8-6.9,8.1-6.9c1,0,2.1,0.1,3.1,0.4c0.8,0.2,1.3,0.3,1.8,0.5c0.1,1.3,0.4,3,0.7,5.3l-1.5,0.2
				c-0.7-2.2-1.9-4.6-4.6-4.6c-1.7,0-2.9,1.3-2.9,2.9c0,1.7,1.3,2.7,3.5,3.7l0.7,0.3c3.1,1.4,5.8,3.1,5.8,7.1c0,4.2-3.3,7.2-8.6,7.2
				c-1.4,0-2.7-0.3-3.7-0.6c-1-0.3-1.7-0.6-2.1-0.8c-0.3-1.6-0.7-3.4-1.1-5.6L73.8,127.5z"/>
			<path fill="#BB2630" d="M99.4,112.5c4.2,0,7.6,0.8,9.9,3c1.6,1.5,2.9,4,2.9,6.9c0,8.4-6.4,12-14.2,12h-8.7v-1.3
				c2.5-0.2,2.7-0.4,2.7-4.1v-11.2c0-3.7-0.3-3.9-2.5-4.1v-1.3H99.4z M97.8,129.1c0,3,0.7,3.6,2.4,3.6c2.9,0,5.8-3.2,5.8-9.2
				c0-7.3-3.7-9.3-6.6-9.3c-0.8,0-1.2,0.1-1.5,0.2c-0.2,0.1-0.2,0.8-0.2,1.7V129.1z"/>
			<path fill="#BB2630" d="M122.4,134.7c-2.3-6.1-5.5-14.4-6.7-17.6c-1.1-2.9-1.8-3.1-3.4-3.3v-1.3h10.9v1.3l-1.1,0.1
				c-1.3,0.2-1.3,0.4-0.9,1.6c0.6,1.9,3.3,8.6,4.5,11.9c1-2.9,3.2-9.3,3.8-10.9c0.7-2.1,0.5-2.4-1-2.6l-1-0.1v-1.3h8.2v1.3
				c-1.9,0.2-2.4,0.4-3.7,3.5c-0.2,0.5-4.3,10.5-6.9,17.4H122.4z"/>
			<path fill="#BB2630" d="M156.9,123.2c0,7.2-4.9,11.8-11.4,11.8c-6.8,0-11.3-5-11.3-11.2c0-5.5,3.7-11.8,11.7-11.8
				C152.1,112,156.9,116.5,156.9,123.2z M140.5,122.6c0,6.1,2.3,10.6,5.6,10.6c2.9,0,4.5-2.8,4.5-8.9c0-6.8-2.4-10.6-5.3-10.6
				C142.7,113.7,140.5,116.7,140.5,122.6z"/>
			<path fill="#BB2630" d="M160.3,127.5c0.7,2,2.7,5.7,6,5.7c1.8,0,3.1-1.1,3.1-3.3c0-2-1.3-3.2-3.4-4.1l-0.5-0.2
				c-2.8-1.3-5.9-3-5.9-6.7c0-3.8,2.8-6.9,8.1-6.9c1,0,2.1,0.1,3.1,0.4c0.8,0.2,1.3,0.3,1.8,0.5c0.1,1.3,0.4,3,0.7,5.3l-1.5,0.2
				c-0.7-2.2-1.9-4.6-4.6-4.6c-1.7,0-2.9,1.3-2.9,2.9c0,1.7,1.3,2.7,3.5,3.7l0.7,0.3c3.1,1.4,5.8,3.1,5.8,7.1c0,4.2-3.3,7.2-8.6,7.2
				c-1.4,0-2.7-0.3-3.7-0.6c-1-0.3-1.7-0.6-2.1-0.8c-0.3-1.6-0.7-3.4-1.1-5.6L160.3,127.5z"/>
			<path fill="#BB2630" d="M178.6,117.9c0-3.7-0.3-3.9-2.4-4.1v-1.3h10.6c4.8,0,7.6,1.4,7.6,5c0,2.9-2.8,4.5-4.7,4.7v0.1
				c3.2,0.4,6,2.2,6,5.7c0,2.5-1.2,4.1-3,5.1c-1.6,0.9-4,1.3-6.8,1.3h-9.7v-1.3c2.4-0.2,2.6-0.4,2.6-4.1V117.9z M184,121.9h1.1
				c2,0,3.4-1.3,3.4-4c0-3-1.8-3.8-3-3.8c-0.8,0-1.2,0.1-1.3,0.2c-0.2,0.1-0.2,0.8-0.2,1.7V121.9z M184,129.2c0,3,0.7,3.7,2,3.6
				c1.4,0,3.4-1.1,3.4-4.4c0-3.4-2.1-4.9-4.4-4.9h-1V129.2z"/>
		</g>
	</g>
	<g>
		<path fill="#BB2630" d="M101,194.4l-1.5-0.7c0.2-0.6,0.3-1.2,0.3-1.7c0-0.5-0.3-1-0.7-1.5c-0.4-0.5-0.9-0.9-1.6-1.3
			c-0.6-0.3-1.1-0.5-1.7-0.6c-0.5-0.1-1,0-1.4,0.2c-0.4,0.2-0.7,0.4-0.9,0.8c-0.2,0.4-0.3,0.7-0.2,1.1c0.1,0.4,0.3,0.8,0.7,1.2
			c0.2,0.3,0.8,0.8,1.7,1.7c0.9,0.8,1.5,1.5,1.8,1.9c0.4,0.6,0.6,1.2,0.6,1.7c0,0.6-0.1,1.1-0.4,1.6c-0.3,0.6-0.8,1-1.4,1.3
			c-0.6,0.3-1.3,0.4-2,0.3c-0.8-0.1-1.5-0.3-2.3-0.8c-0.8-0.5-1.5-1-2-1.6c-0.5-0.6-0.8-1.3-0.8-2c-0.1-0.7,0.1-1.4,0.4-2.1l1.5,0.7
			c-0.3,0.8-0.4,1.4-0.1,2.1c0.2,0.6,0.8,1.2,1.7,1.6c0.9,0.5,1.7,0.7,2.3,0.6c0.6-0.1,1-0.4,1.3-0.9c0.2-0.4,0.3-0.8,0.1-1.2
			c-0.1-0.4-0.7-1.1-1.8-2.1c-1.1-0.9-1.8-1.7-2.1-2.1c-0.5-0.7-0.8-1.3-0.8-2c-0.1-0.6,0.1-1.3,0.4-1.9c0.3-0.6,0.8-1.1,1.5-1.4
			c0.6-0.3,1.4-0.5,2.2-0.4c0.8,0.1,1.6,0.3,2.4,0.8c1,0.6,1.8,1.2,2.3,1.9c0.5,0.7,0.8,1.4,0.9,2.2
			C101.6,192.8,101.4,193.6,101,194.4z"/>
		<path fill="#BB2630" d="M85.2,182.9l-1.2-1.2c0.8-0.6,1.6-0.9,2.5-0.9c0.9,0,1.7,0.3,2.6,1c1.1,0.8,1.7,1.8,1.8,3
			c0.1,1.2-0.3,2.3-1.2,3.6c-1,1.3-2,2-3.2,2.2c-1.2,0.2-2.3-0.1-3.3-0.9c-1-0.8-1.5-1.7-1.7-2.9c-0.1-1.2,0.3-2.4,1.2-3.6
			c0.1-0.1,0.1-0.2,0.3-0.3l5.5,4.3c0.6-0.9,0.8-1.7,0.7-2.4c-0.1-0.8-0.4-1.4-1.1-1.8c-0.5-0.4-1-0.5-1.5-0.5
			C86.3,182.3,85.8,182.5,85.2,182.9z M87.8,188.1l-4.2-3.2c-0.4,0.7-0.6,1.3-0.6,1.8c0,0.8,0.4,1.4,1,1.9c0.6,0.4,1.2,0.6,1.9,0.5
			C86.6,189.1,87.2,188.7,87.8,188.1z"/>
		<path fill="#BB2630" d="M84.1,177.9l-6.5,6.8l-1-1l1-1c-0.7,0.2-1.3,0.3-1.6,0.2c-0.4-0.1-0.7-0.2-1-0.5c-0.4-0.4-0.7-0.9-0.8-1.5
			l1.4-0.7c0.1,0.4,0.3,0.8,0.6,1.1c0.3,0.2,0.5,0.4,0.9,0.4c0.3,0,0.7,0,1-0.2c0.5-0.3,1-0.7,1.5-1.2l3.4-3.5L84.1,177.9z"/>
		<path fill="#BB2630" d="M77.8,171.5l-4.9,8.8l-1.1-1.3l3-5.2c0.3-0.6,0.7-1.1,1.1-1.7c-0.5,0.2-1.1,0.4-1.7,0.7l-5.7,2.1l-1.1-1.2
			l9.5-3.3L77.8,171.5z"/>
		<path fill="#BB2630" d="M64.5,172.5l-1.5,1l-0.9-1.3l1.5-1L64.5,172.5z M73.6,166.1l-7.7,5.4l-0.9-1.3l7.7-5.4L73.6,166.1z"/>
		<path fill="#BB2630" d="M65.1,158.9l-0.6-1.5c1-0.4,2-0.4,2.8-0.1c0.9,0.3,1.6,0.9,2.1,1.8c0.6,1.1,0.8,2.2,0.4,3.3
			c-0.3,1.1-1.2,2-2.6,2.8c-0.9,0.5-1.7,0.8-2.6,0.9c-0.8,0.1-1.6-0.1-2.2-0.5c-0.7-0.4-1.2-1-1.6-1.7c-0.5-0.9-0.7-1.7-0.6-2.6
			c0.1-0.8,0.6-1.5,1.3-2.2l1,1.2c-0.5,0.4-0.8,0.9-0.9,1.4c-0.1,0.5,0,1,0.3,1.4c0.4,0.7,1,1.1,1.7,1.3s1.7-0.1,2.7-0.7
			c1.1-0.6,1.8-1.3,2-2s0.2-1.4-0.2-2.1c-0.3-0.5-0.7-0.9-1.3-1.1C66.5,158.5,65.9,158.6,65.1,158.9z"/>
		<path fill="#BB2630" d="M61.5,149.5l-0.4-1.6c1-0.1,1.9,0,2.6,0.5c0.8,0.5,1.3,1.2,1.7,2.2c0.5,1.3,0.5,2.4,0,3.5
			c-0.5,1.1-1.4,1.9-2.8,2.4c-1.5,0.6-2.8,0.7-3.9,0.2c-1.1-0.4-1.9-1.2-2.4-2.4c-0.5-1.2-0.5-2.3,0-3.3c0.5-1.1,1.5-1.9,2.9-2.5
			c0.1,0,0.2-0.1,0.4-0.2l2.6,6.5c0.9-0.4,1.6-1,1.9-1.7c0.3-0.7,0.3-1.4,0-2.1c-0.2-0.5-0.5-0.9-1-1.2
			C62.8,149.6,62.2,149.5,61.5,149.5z M61.1,155.3l-2-4.9c-0.7,0.4-1.2,0.8-1.4,1.2c-0.4,0.7-0.4,1.4-0.1,2.2
			c0.3,0.7,0.7,1.2,1.4,1.4C59.6,155.6,60.3,155.6,61.1,155.3z"/>
		<path fill="#BB2630" d="M61.5,139.4l-12.8,2l-0.7-4.4c-0.2-1-0.2-1.8-0.2-2.3c0.1-0.8,0.3-1.4,0.6-2c0.5-0.8,1.1-1.4,2-1.9
			c0.8-0.5,1.8-0.8,3-1c1-0.1,1.9-0.2,2.6-0.1c0.8,0.1,1.5,0.3,2,0.6c0.5,0.3,1,0.6,1.3,1c0.3,0.4,0.6,0.9,0.9,1.4
			c0.2,0.6,0.4,1.2,0.5,2L61.5,139.4z M59.7,137.9l-0.4-2.7c-0.1-0.8-0.3-1.5-0.5-1.9c-0.2-0.5-0.5-0.8-0.8-1
			c-0.5-0.3-1.1-0.6-1.8-0.7c-0.7-0.1-1.6-0.1-2.5,0c-1.3,0.2-2.3,0.6-3,1.1c-0.7,0.5-1.1,1.2-1.2,1.8c-0.1,0.5-0.1,1.2,0.1,2.2
			l0.4,2.7L59.7,137.9z"/>
		<path fill="#BB2630" d="M48.8,126.7l-1.8,0.1l-0.1-1.6l1.8-0.1L48.8,126.7z M59.9,126.3l-9.4,0.3l-0.1-1.6l9.4-0.3L59.9,126.3z"/>
		<path fill="#BB2630" d="M56.9,122.4l-0.2-1.6c0.6-0.1,1.1-0.3,1.5-0.7c0.4-0.4,0.6-0.9,0.6-1.7c0-0.7-0.1-1.3-0.4-1.6
			c-0.3-0.4-0.6-0.6-1-0.6c-0.4,0-0.6,0.1-0.9,0.4c-0.2,0.2-0.4,0.7-0.6,1.6c-0.4,1.1-0.7,1.9-0.9,2.4s-0.6,0.8-0.9,1
			c-0.4,0.2-0.8,0.3-1.3,0.3c-0.4,0-0.8-0.1-1.1-0.4c-0.3-0.2-0.6-0.5-0.8-0.8c-0.2-0.3-0.3-0.6-0.4-1c-0.1-0.4-0.1-0.9-0.1-1.4
			c0-0.7,0.2-1.4,0.4-1.9c0.2-0.5,0.6-0.9,0.9-1.2c0.4-0.2,0.9-0.4,1.5-0.5l0.1,1.6c-0.5,0-0.9,0.2-1.2,0.5
			c-0.3,0.3-0.5,0.8-0.5,1.4c0,0.7,0.1,1.3,0.3,1.6c0.2,0.3,0.5,0.5,0.8,0.5c0.2,0,0.4,0,0.6-0.2c0.2-0.1,0.3-0.3,0.5-0.6
			c0.1-0.2,0.2-0.6,0.5-1.4c0.4-1.1,0.7-1.9,0.9-2.3c0.2-0.4,0.5-0.8,0.9-1c0.4-0.2,0.8-0.3,1.4-0.3c0.5,0,1,0.2,1.5,0.5
			c0.4,0.3,0.8,0.8,1,1.4c0.2,0.6,0.3,1.3,0.3,2c-0.1,1.2-0.4,2.1-0.9,2.7S57.9,122.3,56.9,122.4z"/>
		<path fill="#BB2630" d="M60.4,106.4c0.4,0.7,0.6,1.3,0.7,1.9c0.1,0.6,0.1,1.2,0,1.8c-0.2,1-0.6,1.7-1.2,2.2
			c-0.6,0.5-1.3,0.6-2.1,0.5c-0.5-0.1-0.8-0.3-1.2-0.5c-0.3-0.3-0.6-0.6-0.7-1c-0.2-0.4-0.3-0.8-0.3-1.2c0-0.3,0-0.8,0-1.4
			c0.1-1.3,0.1-2.3,0-2.9c-0.2,0-0.3-0.1-0.4-0.1c-0.6-0.1-1.1-0.1-1.4,0.2c-0.4,0.3-0.7,0.9-0.9,1.7c-0.1,0.7-0.1,1.3,0.1,1.7
			c0.2,0.4,0.6,0.7,1.2,1l-0.5,1.5c-0.6-0.3-1.1-0.6-1.5-1c-0.3-0.4-0.6-0.9-0.7-1.6c-0.1-0.6-0.1-1.4,0.1-2.2
			c0.1-0.8,0.4-1.4,0.6-1.9c0.3-0.5,0.6-0.8,0.9-1c0.3-0.2,0.7-0.3,1.2-0.3c0.3,0,0.8,0.1,1.5,0.2l2.1,0.4c1.5,0.3,2.4,0.4,2.8,0.4
			c0.4,0,0.8-0.1,1.2-0.2l-0.3,1.6C61.3,106.4,60.9,106.5,60.4,106.4z M56.9,105.9c0.1,0.6,0.2,1.5,0.1,2.7c0,0.7,0,1.1,0.1,1.4
			c0.1,0.3,0.2,0.5,0.4,0.7c0.2,0.2,0.4,0.3,0.7,0.4c0.4,0.1,0.8,0,1.1-0.3c0.3-0.3,0.6-0.7,0.7-1.3c0.1-0.6,0.1-1.2-0.1-1.7
			s-0.5-0.9-0.9-1.2c-0.3-0.2-0.8-0.4-1.5-0.5L56.9,105.9z"/>
		<path fill="#BB2630" d="M63,101.2l-0.5,1.4l-12.3-4.1l0.5-1.5l4.4,1.5c-0.6-0.9-0.7-1.9-0.4-2.8c0.2-0.5,0.5-1,0.9-1.4
			c0.4-0.4,0.8-0.7,1.3-0.9c0.5-0.2,1.1-0.3,1.7-0.3c0.6,0,1.3,0.1,1.9,0.3c1.5,0.5,2.6,1.3,3.1,2.3c0.6,1,0.7,2.1,0.3,3.1
			c-0.4,1-1.1,1.7-2.1,2L63,101.2z M58.5,99.7c1.1,0.4,1.9,0.5,2.5,0.3c0.9-0.2,1.5-0.7,1.8-1.5c0.2-0.7,0.1-1.3-0.3-2
			c-0.4-0.7-1.2-1.2-2.3-1.6c-1.2-0.4-2.1-0.5-2.8-0.2c-0.7,0.3-1.2,0.7-1.4,1.4c-0.2,0.7-0.1,1.3,0.3,2
			C56.6,98.8,57.4,99.3,58.5,99.7z"/>
		<path fill="#BB2630" d="M66.1,92.9l-11.8-5.3l0.7-1.4l11.8,5.3L66.1,92.9z"/>
		<path fill="#BB2630" d="M68.5,81.8l1-1.3c0.7,0.7,1.1,1.5,1.2,2.4c0.1,0.9-0.1,1.8-0.7,2.7c-0.7,1.2-1.6,1.9-2.7,2.2
			c-1.1,0.3-2.4,0-3.7-0.7c-1.4-0.8-2.2-1.8-2.6-2.9c-0.3-1.1-0.2-2.3,0.5-3.4c0.6-1.1,1.5-1.8,2.6-2c1.1-0.3,2.4,0,3.7,0.8
			c0.1,0,0.2,0.1,0.4,0.2l-3.5,6.1c0.9,0.5,1.8,0.6,2.5,0.4c0.7-0.2,1.3-0.6,1.7-1.3c0.3-0.5,0.4-1,0.3-1.5
			C69.2,82.8,69,82.3,68.5,81.8z M63.7,85l2.6-4.5c-0.7-0.3-1.3-0.5-1.8-0.4c-0.8,0.1-1.4,0.5-1.8,1.2c-0.4,0.6-0.5,1.3-0.3,2
			C62.5,84,63,84.6,63.7,85z"/>
		<path fill="#BB2630" d="M76.9,75.2L76,74.5c0.4,1,0.2,2-0.5,2.9c-0.5,0.6-1,1-1.8,1.2c-0.7,0.2-1.5,0.3-2.3,0.1
			c-0.8-0.2-1.6-0.6-2.3-1.2c-0.7-0.6-1.3-1.2-1.7-1.9c-0.4-0.7-0.6-1.4-0.5-2.2c0.1-0.7,0.3-1.4,0.8-2c0.3-0.4,0.8-0.8,1.2-1
			c0.5-0.2,0.9-0.3,1.4-0.3l-3.7-2.9l1-1.2l10.2,8L76.9,75.2z M70.2,76.3c0.9,0.7,1.8,1.1,2.6,1.1c0.8,0,1.4-0.3,1.8-0.9
			c0.4-0.5,0.6-1.2,0.4-1.9c-0.1-0.7-0.7-1.5-1.6-2.2c-1-0.8-1.9-1.2-2.7-1.2s-1.4,0.3-1.8,0.9c-0.4,0.6-0.6,1.2-0.4,1.9
			C68.6,74.8,69.2,75.6,70.2,76.3z"/>
		<path fill="#BB2630" d="M86.5,65.7l-12.1-6.8l1.4-1.2l8.6,5.1c0.7,0.4,1.3,0.8,1.9,1.2c-0.3-0.7-0.6-1.4-0.8-2.1l-3.3-9.5l1.4-1.1
			l4.3,13.2L86.5,65.7z"/>
		<path fill="#BB2630" d="M96.2,55.2l1.5-0.7c0.3,1,0.3,1.8-0.1,2.7c-0.3,0.8-0.9,1.5-1.9,2.1c-1.2,0.7-2.3,0.9-3.4,0.6
			c-1.1-0.3-2.1-1.1-2.9-2.4c-0.8-1.3-1.1-2.6-0.9-3.8c0.2-1.2,0.9-2.1,2-2.8c1.1-0.7,2.2-0.8,3.3-0.5c1.1,0.3,2.1,1.1,2.9,2.5
			c0,0.1,0.1,0.2,0.2,0.4l-6,3.7c0.6,0.8,1.2,1.4,2,1.6c0.7,0.2,1.4,0.1,2.1-0.3c0.5-0.3,0.8-0.7,1-1.2
			C96.3,56.5,96.3,55.9,96.2,55.2z M90.4,55.7l4.5-2.7c-0.5-0.6-1-1-1.4-1.2c-0.8-0.3-1.5-0.2-2.2,0.2c-0.6,0.4-1,0.9-1.2,1.6
			C89.9,54.3,90,55,90.4,55.7z"/>
		<path fill="#BB2630" d="M103.8,53.2l0.8,1.2c-0.4,0.3-0.7,0.5-1,0.6c-0.5,0.2-1,0.4-1.3,0.3c-0.4,0-0.7-0.1-0.9-0.4
			c-0.2-0.2-0.6-0.8-1-1.6l-2.3-4.9L97,49l-0.5-1.1l1.1-0.5l-1-2.1l1-1.5l1.4,3l1.4-0.7l0.5,1.1l-1.4,0.7l2.4,5
			c0.2,0.4,0.3,0.7,0.5,0.8c0.1,0.1,0.2,0.1,0.4,0.2c0.1,0,0.3,0,0.5-0.1C103.4,53.5,103.6,53.3,103.8,53.2z"/>
		<path fill="#BB2630" d="M111.2,48.7l1.6-0.4c0.1,1-0.1,1.9-0.6,2.6c-0.5,0.7-1.2,1.3-2.3,1.6c-1.3,0.5-2.5,0.4-3.5-0.1
			c-1-0.5-1.8-1.5-2.3-3c-0.5-1.5-0.5-2.8-0.1-3.9c0.5-1.1,1.3-1.9,2.6-2.3c1.2-0.4,2.3-0.4,3.3,0.2c1,0.5,1.8,1.5,2.3,3
			c0,0.1,0.1,0.2,0.1,0.4l-6.6,2.3c0.4,1,0.9,1.6,1.6,1.9c0.7,0.3,1.4,0.4,2.1,0.1c0.5-0.2,1-0.5,1.3-0.9
			C111,50,111.2,49.4,111.2,48.7z M105.4,48l4.9-1.7c-0.3-0.7-0.7-1.2-1.2-1.5c-0.7-0.4-1.4-0.5-2.2-0.2c-0.7,0.2-1.2,0.7-1.5,1.3
			C105.2,46.5,105.2,47.2,105.4,48z"/>
		<path fill="#BB2630" d="M116,50.5l-2.1-9.1l1.4-0.3l0.3,1.4c0.2-0.7,0.4-1.2,0.7-1.5c0.3-0.3,0.6-0.5,0.9-0.5
			c0.5-0.1,1.1-0.1,1.7,0.1l-0.2,1.6c-0.4-0.1-0.8-0.2-1.2-0.1c-0.3,0.1-0.6,0.2-0.8,0.5c-0.2,0.3-0.4,0.6-0.4,1
			c0,0.6,0,1.2,0.2,1.9l1.1,4.8L116,50.5z"/>
		<path fill="#BB2630" d="M128.1,47.3c-0.5,0.6-1.1,1-1.6,1.2c-0.5,0.3-1.1,0.4-1.7,0.5c-1,0.1-1.8,0-2.4-0.5c-0.6-0.4-1-1-1-1.8
			c-0.1-0.5,0-0.9,0.2-1.3c0.2-0.4,0.4-0.7,0.7-1c0.3-0.3,0.7-0.5,1.1-0.6c0.3-0.1,0.8-0.2,1.4-0.4c1.3-0.3,2.2-0.6,2.8-0.9
			c0-0.2,0-0.4,0-0.4c-0.1-0.6-0.3-1.1-0.6-1.3c-0.4-0.3-1.1-0.4-1.9-0.3c-0.7,0.1-1.3,0.3-1.6,0.6c-0.3,0.3-0.5,0.8-0.6,1.5l-1.6,0
			c0.1-0.7,0.2-1.2,0.5-1.7s0.7-0.8,1.3-1.1c0.6-0.3,1.3-0.5,2.1-0.6c0.8-0.1,1.5-0.1,2,0.1c0.5,0.1,0.9,0.3,1.2,0.6
			c0.3,0.3,0.5,0.6,0.6,1c0.1,0.3,0.2,0.7,0.2,1.4l0.2,2.1c0.2,1.5,0.3,2.4,0.4,2.8c0.1,0.4,0.3,0.7,0.5,1.1l-1.6,0.2
			C128.4,48.1,128.2,47.7,128.1,47.3z M127.6,43.8c-0.5,0.3-1.4,0.6-2.5,0.9c-0.6,0.2-1.1,0.3-1.3,0.5c-0.3,0.1-0.4,0.3-0.6,0.6
			c-0.1,0.2-0.2,0.5-0.1,0.8c0,0.4,0.2,0.8,0.6,1c0.4,0.2,0.8,0.3,1.4,0.3c0.6-0.1,1.1-0.3,1.6-0.6c0.4-0.3,0.8-0.7,0.9-1.2
			c0.1-0.4,0.2-0.9,0.1-1.6L127.6,43.8z"/>
		<path fill="#BB2630" d="M132.4,48.1l0.2-9.4l1.4,0l0,1.3c0.7-1,1.7-1.5,3-1.5c0.6,0,1.1,0.1,1.6,0.3c0.5,0.2,0.8,0.5,1,0.8
			c0.2,0.3,0.4,0.7,0.5,1.2c0.1,0.3,0.1,0.8,0.1,1.5l-0.1,5.8l-1.6,0l0.1-5.7c0-0.6,0-1.1-0.2-1.5c-0.1-0.3-0.3-0.6-0.6-0.8
			c-0.3-0.2-0.7-0.3-1.1-0.3c-0.7,0-1.3,0.2-1.8,0.6c-0.5,0.4-0.8,1.2-0.8,2.4l-0.1,5.1L132.4,48.1z"/>
		<path fill="#BB2630" d="M149.4,43c0.6-2.1,1.5-3.6,3-4.4c1.4-0.9,3-1.1,4.8-0.6c1.2,0.3,2.1,0.9,2.9,1.7c0.8,0.8,1.3,1.8,1.5,2.9
			s0.2,2.3-0.2,3.6c-0.3,1.3-0.9,2.3-1.7,3.2c-0.8,0.9-1.7,1.4-2.8,1.7c-1.1,0.3-2.2,0.3-3.2,0c-1.2-0.3-2.2-0.9-2.9-1.7
			c-0.8-0.8-1.3-1.8-1.5-2.9C149,45.2,149.1,44.1,149.4,43z M151.1,43.5c-0.4,1.5-0.3,2.8,0.3,3.9c0.6,1.1,1.5,1.8,2.7,2.1
			c1.2,0.3,2.4,0.2,3.4-0.5c1-0.7,1.8-1.8,2.2-3.4c0.3-1,0.3-2,0.2-2.8c-0.1-0.9-0.5-1.6-1-2.2c-0.6-0.6-1.2-1-2.1-1.2
			c-1.2-0.3-2.3-0.2-3.3,0.4C152.3,40.4,151.6,41.6,151.1,43.5z"/>
		<path fill="#BB2630" d="M163.2,53.8l1.4-9.7l1.5,0.7l-1,5.5l-0.4,2.1c0.1-0.1,0.5-0.6,1.3-1.5l3.7-4.3l1.5,0.7l-1.1,5.5l-0.3,1.8
			l1.3-1.4l3.8-4.2l1.4,0.7l-6.7,7.2l-1.5-0.7l1.1-5.7l0.4-1.6l-4.8,5.7L163.2,53.8z"/>
		<path fill="#BB2630" d="M173.5,59.1l5.3-7.7l1.2,0.8l-0.8,1.1c1.2-0.5,2.3-0.3,3.3,0.4c0.5,0.3,0.8,0.7,1.1,1.1
			c0.3,0.4,0.4,0.9,0.4,1.3c0,0.4-0.1,0.8-0.3,1.2c-0.1,0.3-0.4,0.7-0.8,1.3l-3.3,4.8l-1.3-0.9l3.2-4.7c0.4-0.5,0.6-1,0.7-1.3
			s0-0.7-0.1-1c-0.2-0.3-0.4-0.6-0.8-0.9c-0.6-0.4-1.2-0.5-1.8-0.5c-0.6,0.1-1.3,0.6-2,1.6l-2.9,4.2L173.5,59.1z"/>
		<path fill="#BB2630" d="M188.6,67.1l1.1,1.3c-0.8,0.5-1.7,0.8-2.6,0.7s-1.7-0.5-2.5-1.2c-1-0.9-1.5-2-1.6-3.1
			c0-1.2,0.5-2.3,1.5-3.4c1.1-1.2,2.2-1.8,3.4-1.9c1.2-0.1,2.3,0.3,3.2,1.2c0.9,0.8,1.4,1.8,1.4,3c0,1.2-0.5,2.3-1.5,3.5
			c-0.1,0.1-0.2,0.2-0.3,0.3l-5.2-4.7c-0.7,0.8-1,1.6-0.9,2.3c0,0.8,0.3,1.4,0.9,1.9c0.4,0.4,0.9,0.6,1.4,0.7
			C187.4,67.6,188,67.4,188.6,67.1z M186.5,61.7l3.9,3.5c0.5-0.6,0.7-1.2,0.8-1.7c0-0.8-0.2-1.5-0.8-2c-0.5-0.5-1.2-0.7-1.9-0.7
			C187.7,60.8,187.1,61.1,186.5,61.7z"/>
		<path fill="#BB2630" d="M193.2,76.7l0.9-0.8c-1.1,0.1-2-0.2-2.8-1.1c-0.5-0.6-0.8-1.2-0.8-2c-0.1-0.7,0-1.5,0.4-2.2
			c0.3-0.7,0.9-1.4,1.6-2c0.7-0.6,1.5-1,2.3-1.3c0.8-0.2,1.5-0.3,2.2,0c0.7,0.2,1.3,0.6,1.8,1.2c0.4,0.4,0.6,0.9,0.7,1.4
			c0.1,0.5,0.1,1,0,1.4l3.6-3l1,1.2l-9.9,8.3L193.2,76.7z M193.6,69.9c-0.9,0.8-1.4,1.5-1.6,2.3s0,1.4,0.5,1.9
			c0.4,0.5,1,0.8,1.8,0.8c0.7,0,1.6-0.4,2.5-1.1c1-0.8,1.5-1.6,1.7-2.4c0.1-0.8,0-1.4-0.5-2c-0.5-0.5-1.1-0.8-1.8-0.8
			C195.4,68.7,194.6,69.1,193.6,69.9z"/>
		<path fill="#BB2630" d="M202.3,82.4l0.9,1.4c-0.5,0.4-0.9,0.8-1.2,1.2c-0.2,0.4-0.3,1-0.3,1.6c0,0.6,0.2,1.3,0.6,1.9
			c0.3,0.6,0.6,1.1,1,1.4c0.4,0.4,0.8,0.6,1.2,0.6c0.4,0.1,0.8,0,1.2-0.2c0.4-0.2,0.6-0.5,0.8-0.8c0.2-0.3,0.2-0.8,0.1-1.4
			c0-0.4-0.2-1.2-0.5-2.3c-0.3-1.2-0.4-2.1-0.4-2.6c0-0.7,0.2-1.3,0.4-1.8c0.3-0.5,0.7-0.9,1.2-1.1c0.6-0.3,1.2-0.4,1.9-0.3
			c0.7,0.1,1.3,0.4,1.9,0.9c0.6,0.5,1.1,1.1,1.5,1.9c0.4,0.9,0.7,1.7,0.7,2.5c0.1,0.8-0.1,1.5-0.4,2.1c-0.4,0.6-0.9,1.1-1.5,1.5
			l-0.9-1.4c0.7-0.5,1.1-1,1.2-1.6c0.1-0.6,0-1.4-0.5-2.3c-0.5-0.9-1-1.5-1.5-1.8c-0.6-0.2-1.1-0.3-1.5,0c-0.4,0.2-0.7,0.5-0.8,1
			c-0.1,0.4,0,1.3,0.4,2.7c0.4,1.4,0.5,2.4,0.6,2.9c0,0.8-0.1,1.5-0.4,2.1c-0.3,0.6-0.8,1-1.4,1.3c-0.6,0.3-1.3,0.4-2,0.4
			c-0.7-0.1-1.4-0.4-2-0.9c-0.6-0.5-1.2-1.2-1.6-2c-0.5-1-0.8-2-0.9-2.9c-0.1-0.9,0.1-1.6,0.5-2.4C201,83.4,201.6,82.8,202.3,82.4z"
			/>
		<path fill="#BB2630" d="M204.2,95.5l9-2.7l0.4,1.4l-1.3,0.4c0.5,0.2,1,0.4,1.4,0.8c0.4,0.4,0.7,0.9,0.9,1.5
			c0.2,0.7,0.2,1.3,0.1,1.8c-0.2,0.5-0.4,0.9-0.9,1.2c1.3,0.4,2.1,1.2,2.4,2.3c0.3,0.9,0.2,1.7-0.1,2.3s-1,1.1-2.1,1.4l-6.2,1.8
			l-0.4-1.5l5.7-1.7c0.6-0.2,1-0.4,1.3-0.5c0.2-0.2,0.4-0.4,0.5-0.7c0.1-0.3,0.1-0.6,0-1c-0.2-0.6-0.6-1.1-1.1-1.4
			c-0.5-0.3-1.3-0.3-2.2,0l-5.2,1.6l-0.5-1.5l5.8-1.7c0.7-0.2,1.1-0.5,1.4-0.8c0.3-0.3,0.3-0.8,0.1-1.4c-0.1-0.4-0.4-0.8-0.7-1.1
			c-0.3-0.3-0.7-0.5-1.2-0.5c-0.5,0-1.1,0.1-2,0.3l-4.7,1.4L204.2,95.5z"/>
		<path fill="#BB2630" d="M210,116.1c-0.6-0.5-1-1-1.3-1.6c-0.3-0.5-0.4-1.1-0.5-1.7c-0.1-1,0-1.8,0.5-2.4c0.4-0.6,1-1,1.8-1.1
			c0.5-0.1,0.9,0,1.3,0.2s0.7,0.4,1,0.7c0.3,0.3,0.5,0.7,0.7,1.1c0.1,0.3,0.3,0.8,0.4,1.4c0.3,1.3,0.6,2.2,0.9,2.8
			c0.2,0,0.4,0,0.4,0c0.6-0.1,1.1-0.3,1.3-0.6c0.3-0.4,0.4-1.1,0.3-1.9c-0.1-0.7-0.3-1.3-0.6-1.6c-0.3-0.3-0.8-0.5-1.5-0.6l0-1.6
			c0.7,0.1,1.2,0.2,1.7,0.5c0.4,0.3,0.8,0.7,1.1,1.3c0.3,0.6,0.5,1.3,0.6,2.1c0.1,0.8,0.1,1.5-0.1,2c-0.1,0.5-0.3,0.9-0.6,1.2
			c-0.3,0.3-0.6,0.5-1,0.6c-0.3,0.1-0.7,0.2-1.4,0.3l-2.1,0.2c-1.5,0.2-2.4,0.3-2.8,0.4c-0.4,0.1-0.7,0.3-1.1,0.5l-0.2-1.6
			C209.2,116.4,209.6,116.2,210,116.1z M213.5,115.6c-0.3-0.5-0.6-1.4-0.9-2.5c-0.2-0.6-0.3-1.1-0.5-1.3c-0.1-0.3-0.3-0.4-0.6-0.6
			c-0.2-0.1-0.5-0.2-0.8-0.1c-0.4,0-0.8,0.3-1,0.6c-0.2,0.4-0.3,0.8-0.3,1.4c0.1,0.6,0.3,1.1,0.6,1.6c0.3,0.4,0.7,0.7,1.2,0.9
			c0.4,0.1,0.9,0.1,1.6,0.1L213.5,115.6z"/>
		<path fill="#BB2630" d="M209.1,120.5l12.9-0.3l0,1.6l-12.9,0.3L209.1,120.5z"/>
		<path fill="#BB2630" d="M209.1,125l12.9,0.5l-0.1,1.6l-12.9-0.5L209.1,125z"/>
		<path fill="#BB2630" d="M208.3,134.9l12.6,2.9l-1.1,4.7c-0.2,1-0.5,1.7-0.9,2.2c-0.4,0.5-0.9,0.9-1.5,1.1
			c-0.6,0.2-1.2,0.2-1.8,0.1c-0.5-0.1-1-0.4-1.4-0.8c-0.4-0.4-0.7-0.9-0.9-1.6c-0.4,0.7-0.9,1.2-1.5,1.5c-0.6,0.3-1.3,0.3-2.1,0.2
			c-0.6-0.1-1.1-0.4-1.6-0.7c-0.5-0.4-0.8-0.8-1-1.2c-0.2-0.4-0.3-0.9-0.3-1.5c0-0.6,0.1-1.3,0.3-2.1L208.3,134.9z M209.4,136.9
			l-0.7,3.1c-0.1,0.5-0.2,0.9-0.2,1.2c0,0.4,0,0.7,0.1,1c0.1,0.3,0.3,0.6,0.6,0.8s0.6,0.4,1,0.5c0.5,0.1,0.9,0.1,1.3-0.1
			c0.4-0.2,0.7-0.4,1-0.8c0.2-0.4,0.4-1,0.6-1.8l0.7-2.9L209.4,136.9z M215.2,138.2l-0.6,2.7c-0.2,0.7-0.2,1.3-0.2,1.6
			c0,0.5,0.2,0.8,0.4,1.1c0.2,0.3,0.6,0.5,1,0.6c0.4,0.1,0.8,0.1,1.2,0c0.4-0.1,0.6-0.4,0.9-0.7c0.2-0.3,0.4-1,0.6-1.9l0.6-2.5
			L215.2,138.2z"/>
		<path fill="#BB2630" d="M203.1,152.4l1.3,0.5c-0.7-1.1-0.8-2.2-0.4-3.4c0.2-0.5,0.5-1,0.9-1.3c0.4-0.4,0.8-0.6,1.1-0.7
			c0.4-0.1,0.8-0.1,1.3,0c0.3,0.1,0.8,0.2,1.4,0.5l5.4,2.1l-0.6,1.5l-4.8-1.9c-0.8-0.3-1.3-0.5-1.6-0.5c-0.4-0.1-0.8,0-1.1,0.2
			s-0.6,0.5-0.8,1s-0.2,0.9-0.2,1.4c0.1,0.5,0.3,0.9,0.6,1.2c0.3,0.3,0.9,0.6,1.6,0.9l4.7,1.8l-0.6,1.5l-8.7-3.4L203.1,152.4z"/>
		<path fill="#BB2630" d="M204.1,156.9l-0.5,1.5c-0.6-0.2-1.1-0.2-1.6-0.1c-0.5,0.2-0.9,0.6-1.3,1.2c-0.4,0.6-0.5,1.2-0.4,1.6
			c0.1,0.5,0.3,0.8,0.7,1c0.3,0.2,0.6,0.2,1,0c0.2-0.1,0.6-0.5,1.3-1.2c0.8-0.9,1.4-1.5,1.8-1.7c0.4-0.3,0.8-0.4,1.3-0.5
			c0.4,0,0.9,0.1,1.3,0.3c0.4,0.2,0.7,0.5,0.9,0.8c0.2,0.3,0.4,0.7,0.4,1.1c0,0.3,0,0.7-0.1,1.1c-0.1,0.4-0.3,0.9-0.5,1.3
			c-0.4,0.6-0.8,1.2-1.2,1.5c-0.5,0.4-0.9,0.6-1.4,0.7c-0.4,0.1-1,0-1.5-0.2l0.6-1.5c0.5,0.2,0.9,0.2,1.3,0c0.4-0.2,0.8-0.5,1.1-1.1
			c0.4-0.6,0.5-1.2,0.4-1.5c-0.1-0.4-0.2-0.7-0.5-0.8c-0.2-0.1-0.4-0.1-0.6-0.1c-0.2,0-0.4,0.1-0.7,0.3c-0.1,0.1-0.5,0.5-1,1
			c-0.8,0.8-1.4,1.4-1.8,1.7c-0.4,0.3-0.8,0.5-1.2,0.5c-0.4,0-0.9-0.1-1.4-0.3c-0.5-0.3-0.8-0.6-1.1-1.1c-0.3-0.5-0.4-1.1-0.3-1.7
			c0.1-0.6,0.3-1.3,0.6-1.9c0.6-1.1,1.3-1.8,2-2.1C202.3,156.6,203.2,156.6,204.1,156.9z"/>
		<path fill="#BB2630" d="M196.6,164.2l7.7,5.3l-0.9,1.3l-7.7-5.3L196.6,164.2z M205.8,170.5l1.5,1l-0.9,1.3l-1.5-1L205.8,170.5z"/>
		<path fill="#BB2630" d="M194.1,167.8l7.2,6l-0.9,1.1l-1-0.9c0.3,1.2,0.1,2.3-0.7,3.3c-0.4,0.4-0.8,0.8-1.2,1s-0.9,0.3-1.3,0.3
			c-0.4,0-0.8-0.2-1.2-0.4c-0.3-0.1-0.7-0.5-1.2-0.9l-4.4-3.7l1-1.2l4.4,3.7c0.5,0.4,0.9,0.7,1.2,0.8c0.3,0.1,0.7,0.1,1,0
			s0.7-0.3,0.9-0.7c0.4-0.5,0.6-1.1,0.6-1.8c0-0.7-0.5-1.4-1.4-2.1l-3.9-3.3L194.1,167.8z"/>
		<path fill="#BB2630" d="M184.7,182.2l-1.4,1c-0.5-0.9-0.6-1.8-0.4-2.6c0.2-0.9,0.6-1.7,1.5-2.4c1-0.9,2.1-1.3,3.3-1.3
			c1.2,0.1,2.3,0.7,3.3,1.8c1.1,1.2,1.6,2.4,1.6,3.5c0,1.2-0.5,2.2-1.5,3.1c-0.9,0.8-2,1.2-3.1,1.1c-1.2-0.1-2.3-0.7-3.3-1.9
			c-0.1-0.1-0.2-0.2-0.3-0.3l5.2-4.7c-0.7-0.7-1.5-1.1-2.2-1.2c-0.8-0.1-1.4,0.2-2,0.7c-0.4,0.4-0.7,0.8-0.8,1.3
			C184.3,180.9,184.4,181.5,184.7,182.2z M190.3,180.6l-3.9,3.5c0.6,0.5,1.1,0.8,1.6,0.9c0.8,0.1,1.5-0.1,2.1-0.6
			c0.5-0.5,0.8-1.1,0.9-1.8C191,181.9,190.8,181.2,190.3,180.6z"/>
		<path fill="#BB2630" d="M181.7,184.3l-1.2,1.1c-0.4-0.5-0.9-0.7-1.4-0.8c-0.5,0-1.1,0.1-1.7,0.5c-0.6,0.4-1,0.8-1.1,1.3
			c-0.1,0.4-0.1,0.8,0.2,1.2c0.2,0.3,0.5,0.4,0.9,0.4c0.3,0,0.8-0.2,1.6-0.5c1.1-0.4,1.9-0.7,2.4-0.8c0.5-0.1,0.9,0,1.3,0.2
			c0.4,0.2,0.7,0.5,1,0.8c0.2,0.3,0.4,0.7,0.4,1.1s0,0.8-0.1,1.2c-0.1,0.3-0.3,0.6-0.6,1c-0.3,0.3-0.6,0.7-1,0.9
			c-0.6,0.4-1.2,0.7-1.8,0.8c-0.6,0.1-1.1,0.1-1.5,0c-0.4-0.1-0.8-0.4-1.3-0.9l1.2-1.1c0.3,0.4,0.7,0.6,1.1,0.6
			c0.4,0,0.9-0.1,1.4-0.5c0.6-0.4,1-0.8,1.1-1.2c0.1-0.4,0.1-0.7-0.1-1c-0.1-0.2-0.3-0.3-0.5-0.3c-0.2-0.1-0.5-0.1-0.7,0
			c-0.2,0-0.6,0.2-1.4,0.5c-1.1,0.4-1.9,0.6-2.4,0.7c-0.5,0.1-0.9,0.1-1.3-0.1c-0.4-0.2-0.8-0.5-1.1-0.9c-0.3-0.4-0.5-0.9-0.5-1.5
			c0-0.6,0.1-1.1,0.5-1.7c0.3-0.5,0.8-1,1.4-1.4c1-0.7,1.9-1,2.7-1C180.3,183.2,181,183.6,181.7,184.3z"/>
		<path fill="#BB2630" d="M173.7,189.7l-1.3,0.9c-0.4-0.5-0.8-0.8-1.3-0.9c-0.5-0.1-1.1,0-1.7,0.3c-0.6,0.3-1.1,0.7-1.2,1.1
			c-0.2,0.4-0.2,0.8,0,1.2c0.2,0.3,0.4,0.5,0.8,0.5c0.3,0,0.8-0.1,1.7-0.3c1.2-0.3,2-0.4,2.5-0.4c0.5,0,0.9,0.1,1.3,0.3
			c0.4,0.2,0.7,0.5,0.9,1c0.2,0.4,0.3,0.8,0.3,1.2c0,0.4-0.1,0.8-0.3,1.1c-0.1,0.3-0.4,0.6-0.7,0.9c-0.3,0.3-0.7,0.6-1.1,0.8
			c-0.7,0.3-1.3,0.5-1.9,0.6c-0.6,0.1-1.1,0-1.5-0.2s-0.8-0.5-1.2-1l1.3-0.9c0.3,0.4,0.6,0.6,1.1,0.7c0.4,0.1,0.9,0,1.5-0.3
			c0.6-0.3,1.1-0.7,1.2-1c0.2-0.4,0.2-0.7,0-1c-0.1-0.2-0.2-0.3-0.4-0.4c-0.2-0.1-0.4-0.1-0.7-0.1c-0.2,0-0.6,0.1-1.4,0.3
			c-1.1,0.3-1.9,0.4-2.4,0.4c-0.5,0-0.9-0.1-1.3-0.3c-0.4-0.2-0.7-0.6-1-1c-0.2-0.5-0.3-1-0.3-1.5c0.1-0.6,0.3-1.1,0.7-1.6
			c0.4-0.5,0.9-0.9,1.6-1.3c1.1-0.6,2-0.8,2.8-0.6C172.4,188.4,173.1,188.9,173.7,189.7z"/>
	</g>
	<g>
		<g>
			<path fill="#BB2630" d="M119.2,246.4l4.2,1.3c-0.3,1.2-0.7,2.2-1.3,2.9c-0.6,0.8-1.4,1.4-2.3,1.8c-0.9,0.4-2,0.6-3.4,0.6
				c-1.7,0-3.1-0.2-4.1-0.7c-1.1-0.5-2-1.3-2.8-2.6s-1.2-2.8-1.2-4.7c0-2.6,0.7-4.5,2-5.9c1.4-1.4,3.3-2.1,5.8-2.1
				c1.9,0,3.5,0.4,4.6,1.2c1.1,0.8,1.9,2,2.5,3.6l-4.2,0.9c-0.1-0.5-0.3-0.8-0.5-1c-0.3-0.4-0.6-0.6-1-0.8c-0.4-0.2-0.8-0.3-1.3-0.3
				c-1.1,0-1.9,0.4-2.5,1.3c-0.4,0.6-0.7,1.7-0.7,3c0,1.7,0.3,2.9,0.8,3.5c0.5,0.6,1.3,1,2.2,1c0.9,0,1.6-0.3,2.1-0.8
				C118.6,248.1,119,247.4,119.2,246.4z"/>
		</g>
	</g>
	<g>
		<g>
			<path fill="#BB2630" d="M146.5,237.3h12.8v3.3h-8v2.5h7.4v3.2h-7.4v3.1h8.3v3.5h-13.1V237.3z"/>
		</g>
	</g>
	<g>
		<g>
			<path fill="#BB2630" d="M120.9,227.2h8.2l5.7,18.3l5.7-18.3h8l-9.5,25.5h-8.5L120.9,227.2z"/>
		</g>
	</g>
</g>
</svg>
